<?xml version="1.0" standalone="no"?>
<!DOCTYPE svg PUBLIC "-//W3C//DTD SVG 1.1//EN" "http://www.w3.org/Graphics/SVG/1.1/DTD/svg11.dtd" >
<svg>
<metadata>
Created by FontForge 20090622 at Thu Aug  4 12:05:50 2016
 By deploy user
Copyright &#194;&#169; 2014 by Ren&#195;&#169; Bieder. All rights reserved.
</metadata>
<defs>
<font id="Campton-Medium" horiz-adv-x="600" >
  <font-face 
    font-family="Campton Medium"
    font-weight="550"
    font-stretch="normal"
    units-per-em="1000"
    panose-1="0 0 6 0 0 0 0 0 0 0"
    ascent="800"
    descent="-200"
    x-height="473"
    cap-height="680"
    bbox="-44 -248 1462 973"
    underline-thickness="50"
    underline-position="-50"
    unicode-range="U+0020-U+FB02"
  />
<missing-glyph horiz-adv-x="870" 
d="M770 680v-680h-670v680h670zM700 610h-481l481 -481v481zM170 70h477l-477 477v-477z" />
    <glyph glyph-name="fi" unicode="fi" horiz-adv-x="705" 
d="M630 473v-473h-116v376h-261v-376h-116v376h-132v97h132v55q0 105 58.5 168t153.5 63q15 0 28 -0.5t27.5 -2.5t23 -3t25 -5t22.5 -5t27.5 -6.5t28.5 -7.5l-23 -99q-92 23 -145 23q-52 0 -81 -33t-29 -92v-55h377z" />
    <glyph glyph-name="fl" unicode="fl" horiz-adv-x="690" 
d="M137 473v84q0 91 53 146.5t139 55.5q55 0 110 -15l-17 -100q-43 9 -70 9q-45 0 -72 -26t-27 -70v-84h165v-97h-165v-376h-116v376h-132v97h132zM622 710v-710h-115v710h115z" />
    <glyph glyph-name=".notdef" horiz-adv-x="870" 
d="M770 680v-680h-670v680h670zM700 610h-481l481 -481v481zM170 70h477l-477 477v-477z" />
    <glyph glyph-name=".null" horiz-adv-x="0" 
 />
    <glyph glyph-name="nonmarkingreturn" horiz-adv-x="333" 
 />
    <glyph glyph-name="space" unicode=" " horiz-adv-x="263" 
 />
    <glyph glyph-name="exclam" unicode="!" horiz-adv-x="279" 
d="M191 210h-103l-9 470h121zM139 -9q-29 0 -50 20t-21 49t21 49t50 20q30 0 51 -20t21 -49t-21 -49t-51 -20z" />
    <glyph glyph-name="quotedbl" unicode="&#x22;" horiz-adv-x="331" 
d="M138 680v-276h-98v276h98zM291 680v-276h-98v276h98z" />
    <glyph glyph-name="numbersign" unicode="#" horiz-adv-x="761" 
d="M559 276h115v-104h-148l-54 -172h-119l54 172h-156l-54 -172h-119l54 172h-99v104h131l35 112h-111v104h144l59 189h119l-59 -189h156l59 189h119l-59 -189h103v-104h-135zM319 388l-35 -112h155l35 112h-155z" />
    <glyph glyph-name="dollar" unicode="$" horiz-adv-x="668" 
d="M317 402l86 -17q102 -20 153 -64t51 -123q0 -84 -57 -140t-153 -69v-109h-104v109q-105 13 -169 74t-72 159h119q9 -60 56.5 -95t123.5 -35q62 0 97.5 24.5t35.5 67.5q0 67 -100 84l-112 22q-192 36 -192 193q0 86 57.5 142.5t155.5 67.5v110h104v-113q86 -13 145 -64.5
t68 -146.5h-119q-18 113 -149 113q-62 0 -98.5 -26.5t-36.5 -72.5q0 -38 27 -59t83 -32z" />
    <glyph glyph-name="percent" unicode="%" horiz-adv-x="1086" 
d="M278 695q84 0 140 -54t56 -139q0 -87 -56 -141.5t-140 -54.5t-140.5 54.5t-56.5 141.5q0 85 56.5 139t140.5 54zM346 0h-81l462 680h81zM278 389q46 0 77.5 31.5t31.5 81.5q0 48 -31.5 79t-77.5 31t-78 -31t-32 -79q0 -50 32 -81.5t78 -31.5zM807 374q85 0 141 -54.5
t56 -139.5q0 -87 -56 -141t-141 -54q-84 0 -140 54.5t-56 140.5q0 85 56 139.5t140 54.5zM807 68q47 0 78.5 31.5t31.5 80.5t-31.5 80t-78.5 31q-45 0 -77 -31.5t-32 -79.5q0 -49 32 -80.5t77 -31.5z" />
    <glyph glyph-name="ampersand" unicode="&#x26;" horiz-adv-x="723" 
d="M553 0l-65 60q-86 -74 -201 -74q-113 0 -182 58t-69 152q0 60 32 107.5t89 75.5q-50 63 -50 125q0 84 60.5 137.5t151.5 53.5q87 0 142.5 -53t66.5 -143h-116q-6 44 -31 68.5t-63 24.5q-39 0 -65 -25t-26 -64q0 -40 29.5 -76t112.5 -112l113 -106l90 139h121l-128 -198
l-8 -12l148 -138h-152zM287 88q64 0 125 43l-145 135l-40 38q-79 -37 -79 -107q0 -45 40 -77t99 -32z" />
    <glyph glyph-name="quotesingle" unicode="'" horiz-adv-x="178" 
d="M138 680v-276h-98v276h98z" />
    <glyph glyph-name="parenleft" unicode="(" horiz-adv-x="363" 
d="M264 736l75 -75q-84 -86 -124.5 -167.5t-40.5 -191.5t40.5 -192t124.5 -167l-75 -75q-208 179 -208 434q0 254 208 434z" />
    <glyph glyph-name="parenright" unicode=")" horiz-adv-x="363" 
d="M24 661l75 75q208 -179 208 -434q0 -257 -208 -434l-75 75q84 85 124.5 167t40.5 192t-40.5 191.5t-124.5 167.5z" />
    <glyph glyph-name="asterisk" unicode="*" horiz-adv-x="407" 
d="M364 467l-32 -57l-95 58v-101h-67v101l-95 -58l-32 57l98 59l-98 59l32 58l95 -58v100h67v-100l95 58l32 -58l-98 -59z" />
    <glyph glyph-name="plus" unicode="+" horiz-adv-x="685" 
d="M398 277v-177h-110v177h-184v106h184v177h110v-177h184v-106h-184z" />
    <glyph glyph-name="comma" unicode="," horiz-adv-x="212" 
d="M33 -115l48 109q-43 18 -43 58q0 28 20.5 47.5t49.5 19.5q30 0 50.5 -19.5t20.5 -47.5q0 -25 -23 -65l-54 -102h-69z" />
    <glyph glyph-name="hyphen" unicode="-" horiz-adv-x="553" 
d="M448 205v115h-344v-115h344z" />
    <glyph glyph-name="period" unicode="." horiz-adv-x="209" 
d="M104 -17q-30 0 -50.5 19.5t-20.5 49.5q0 29 20.5 48.5t50.5 19.5t51 -19.5t21 -48.5q0 -30 -21 -49.5t-51 -19.5z" />
    <glyph glyph-name="slash" unicode="/" horiz-adv-x="405" 
d="M157 -160h-111l254 890h111z" />
    <glyph glyph-name="zero" unicode="0" horiz-adv-x="719" 
d="M360 695q140 0 221 -99t81 -256t-81 -256t-221 -99q-141 0 -222.5 99t-81.5 256t81.5 256t222.5 99zM360 93q88 0 135 69t47 178t-47 178t-135 69t-135.5 -69t-47.5 -178t47.5 -178t135.5 -69z" />
    <glyph glyph-name="one" unicode="1" horiz-adv-x="516" 
d="M509 98v-98h-467v98h179v454l-170 -54v102l222 80h68v-582h168z" />
    <glyph glyph-name="two" unicode="2" horiz-adv-x="560" 
d="M510 98v-98h-456v62l214 249q47 53 63.5 73t33.5 51t17 58q0 40 -27.5 69.5t-81.5 29.5q-51 0 -82.5 -30.5t-36.5 -82.5h-119q3 97 69 156.5t173 59.5t166 -58t59 -145q0 -51 -29 -97.5t-105 -133.5l-141 -163h283z" />
    <glyph glyph-name="three" unicode="3" horiz-adv-x="561" 
d="M427 343q97 -47 97 -154q0 -88 -65.5 -145.5t-170.5 -57.5q-109 0 -171 52t-76 144h117q23 -94 130 -94q55 0 89.5 28.5t34.5 72.5q0 46 -37 73.5t-97 27.5h-53v97h53q50 0 80.5 28t30.5 73q0 46 -29 73.5t-77 27.5q-44 0 -74.5 -25.5t-34.5 -67.5h-117q7 88 69 142
t157 54q98 0 158 -57t60 -146q0 -97 -74 -146z" />
    <glyph glyph-name="four" unicode="4" horiz-adv-x="639" 
d="M598 138h-94v-138h-116v138h-352v74l195 468h121l-178 -440h214v203h116v-203h94v-102z" />
    <glyph glyph-name="five" unicode="5" horiz-adv-x="590" 
d="M201 433h100q105 0 170.5 -60.5t65.5 -155.5q0 -100 -68 -166t-176 -66q-107 0 -173 54t-81 147h117q28 -99 137 -99q58 0 95 36t37 90q0 52 -37.5 85t-101.5 33h-195v349h416v-107h-305z" />
    <glyph glyph-name="six" unicode="6" horiz-adv-x="617" 
d="M296 463h13q114 0 187 -67t73 -169q0 -104 -73.5 -173t-186.5 -69q-114 0 -187.5 69t-73.5 170q0 73 61 168l188 288h139zM309 81q62 0 103 41t41 98q0 58 -40.5 98t-103.5 40q-61 0 -101 -32l-1 -1q-44 -61 -44 -106q0 -57 41.5 -97.5t104.5 -40.5z" />
    <glyph glyph-name="seven" unicode="7" horiz-adv-x="504" 
d="M484 680v-72l-285 -608h-132l267 568h-323v112h473z" />
    <glyph glyph-name="eight" unicode="8" horiz-adv-x="626" 
d="M465 358q113 -52 113 -167q0 -92 -72 -149t-194 -57q-121 0 -192.5 57t-71.5 149q0 115 113 168q-86 48 -86 144q0 84 66.5 138t170.5 54q105 0 171.5 -54t66.5 -138q0 -95 -85 -145zM312 601q-53 0 -86.5 -30t-33.5 -75t33.5 -75t86.5 -30t87 30t34 75t-34 75t-87 30z
M312 84q59 0 97 33t38 82q0 47 -38 78.5t-97 31.5t-96 -31t-37 -79q0 -49 37 -82t96 -33z" />
    <glyph glyph-name="nine" unicode="9" horiz-adv-x="617" 
d="M308 695q114 0 187.5 -69t73.5 -170q0 -73 -61 -168l-188 -288h-139l140 217h-13q-114 0 -187 67t-73 169q0 104 73.5 173t186.5 69zM409 354l1 1q44 61 44 106q0 57 -41.5 97.5t-104.5 40.5q-62 0 -103 -41t-41 -98q0 -58 40.5 -98t103.5 -40q61 0 101 32z" />
    <glyph glyph-name="colon" unicode=":" horiz-adv-x="209" 
d="M104 350q-30 0 -50.5 19.5t-20.5 49.5q0 29 20.5 48.5t50.5 19.5t51 -19.5t21 -48.5q0 -30 -21 -49.5t-51 -19.5zM104 -17q-30 0 -50.5 19.5t-20.5 49.5q0 29 20.5 48.5t50.5 19.5t51 -19.5t21 -48.5q0 -30 -21 -49.5t-51 -19.5z" />
    <glyph glyph-name="semicolon" unicode=";" horiz-adv-x="210" 
d="M105 350q-30 0 -50.5 19.5t-20.5 49.5q0 29 20.5 48.5t50.5 19.5t51 -19.5t21 -48.5q0 -30 -21 -49.5t-51 -19.5zM30 -115l48 109q-43 18 -43 58q0 28 21 47.5t50 19.5t50 -19.5t21 -47.5q0 -23 -24 -65l-54 -102h-69z" />
    <glyph glyph-name="less" unicode="&#x3c;" horiz-adv-x="545" 
d="M473 555v-115l-294 -135l294 -135v-116l-422 193v115z" />
    <glyph glyph-name="equal" unicode="=" horiz-adv-x="691" 
d="M586 369h-482v107h482v-107zM586 171h-482v106h482v-106z" />
    <glyph glyph-name="greater" unicode="&#x3e;" horiz-adv-x="545" 
d="M493 247l-422 -193v116l294 135l-294 135v115l422 -193v-115z" />
    <glyph glyph-name="question" unicode="?" horiz-adv-x="534" 
d="M192 207l-9 155h65q53 0 88.5 31.5t35.5 82.5q0 50 -31.5 81.5t-82.5 31.5q-45 0 -76.5 -25t-37.5 -67h-116q8 89 67 142t158 53t165 -60t66 -155q0 -82 -53 -133.5t-144 -60.5l-5 -76h-90zM234 -9q-29 0 -50 20t-21 49t21 49t50 20q30 0 51 -20t21 -49t-21 -49t-51 -20z
" />
    <glyph glyph-name="at" unicode="@" horiz-adv-x="997" 
d="M701 433v-227q0 -91 63 -91q85 0 85 131q0 146 -98 241.5t-246 95.5t-251.5 -99.5t-103.5 -243.5t102.5 -243t246.5 -99q125 0 220 75l47 -71q-116 -85 -266 -85q-181 0 -308.5 121t-127.5 302t128 302.5t313 121.5q184 0 306 -117.5t122 -298.5q0 -99 -41.5 -159
t-127.5 -60q-100 0 -139 66q-56 -66 -150 -66q-86 0 -143.5 60t-57.5 147q0 88 57.5 148t143.5 60q70 0 124 -41v30h102zM492 121q69 0 109 62q-2 15 -2 46v63q-41 62 -107 62q-45 0 -79.5 -32.5t-34.5 -84.5t34 -84t80 -32z" />
    <glyph glyph-name="A" unicode="A" horiz-adv-x="750" 
d="M538 151h-325l-63 -151h-129l299 684h112l297 -684h-127zM492 262l-116 276l-116 -276h232z" />
    <glyph glyph-name="B" unicode="B" horiz-adv-x="700" 
d="M519 352q65 -13 99 -58.5t34 -107.5q0 -84 -66.5 -135t-179.5 -51h-330v680h318q106 0 166 -47.5t60 -129.5q0 -52 -27.5 -93.5t-73.5 -57.5zM196 574v-181h181q62 0 96 25.5t34 69.5q0 41 -32.5 63.5t-94.5 22.5h-184zM196 106h205q64 0 98.5 27t34.5 67q0 42 -34 63.5
t-94 21.5h-210v-179z" />
    <glyph glyph-name="C" unicode="C" horiz-adv-x="797" 
d="M410 101q80 0 133.5 42.5t73.5 120.5h124q-24 -127 -113.5 -202.5t-217.5 -75.5q-149 0 -251.5 101t-102.5 253t102.5 253t251.5 101q128 0 217.5 -75.5t113.5 -202.5h-124q-20 78 -73.5 120.5t-133.5 42.5q-100 0 -166 -67t-66 -172t66 -172t166 -67z" />
    <glyph glyph-name="D" unicode="D" horiz-adv-x="741" 
d="M76 680h255q157 0 260 -95.5t103 -241.5q0 -148 -103 -245.5t-260 -97.5h-255v680zM196 111h135q102 0 171 67t69 165q0 96 -69 161t-171 65h-135v-458z" />
    <glyph glyph-name="E" unicode="E" horiz-adv-x="617" 
d="M196 569v-178h334v-111h-334v-169h374v-111h-494v680h494v-111h-374z" />
    <glyph glyph-name="F" unicode="F" horiz-adv-x="587" 
d="M196 569v-196h322v-111h-322v-262h-120v680h486v-111h-366z" />
    <glyph glyph-name="G" unicode="G" horiz-adv-x="820" 
d="M750 340v-340h-94l-8 108q-78 -122 -239 -122q-151 0 -252 101.5t-101 243.5q0 158 103.5 260.5t254.5 102.5q116 0 208 -64t121 -184h-128q-25 71 -80.5 102t-118.5 31q-104 0 -171 -68t-67 -180q0 -95 64.5 -162t166.5 -67q81 0 135 43.5t74 116.5h-218v111h350v-33z
" />
    <glyph glyph-name="H" unicode="H" horiz-adv-x="731" 
d="M654 680v-680h-119v278h-339v-278h-120v680h120v-291h339v291h119z" />
    <glyph glyph-name="I" unicode="I" horiz-adv-x="273" 
d="M196 680v-680h-120v680h120z" />
    <glyph glyph-name="J" unicode="J" horiz-adv-x="596" 
d="M529 680v-427q0 -128 -70.5 -198t-192.5 -70q-107 0 -176.5 62t-76.5 170h121q4 -58 42.5 -89t97.5 -31t96.5 42.5t37.5 117.5v423h121z" />
    <glyph glyph-name="K" unicode="K" horiz-adv-x="710" 
d="M312 288l-116 -129v-159h-120v680h120v-357l326 357h144l-273 -302l303 -378h-150z" />
    <glyph glyph-name="L" unicode="L" horiz-adv-x="579" 
d="M554 108v-108h-478v680h120v-572h358z" />
    <glyph glyph-name="M" unicode="M" horiz-adv-x="848" 
d="M772 680v-680h-121v414l-190 -305h-73l-193 309l2 -418h-121v680h86l262 -423l262 423h86z" />
    <glyph glyph-name="N" unicode="N" horiz-adv-x="754" 
d="M677 680v-680h-94l-387 458v-458h-120v680h91l391 -469v469h119z" />
    <glyph glyph-name="O" unicode="O" horiz-adv-x="820" 
d="M410 694q147 0 250.5 -103.5t103.5 -250.5t-103.5 -250.5t-250.5 -103.5t-250.5 103.5t-103.5 250.5t103.5 250.5t250.5 103.5zM410 98q99 0 166 70.5t67 171.5t-67 171.5t-166 70.5q-98 0 -165 -70.5t-67 -171.5t67 -171.5t165 -70.5z" />
    <glyph glyph-name="P" unicode="P" horiz-adv-x="627" 
d="M76 680h256q121 0 195 -64.5t74 -170.5q0 -111 -78.5 -178.5t-207.5 -67.5h-119v-199h-120v680zM196 309h132q69 0 111.5 37.5t42.5 98.5q0 56 -42.5 90t-111.5 34h-132v-260z" />
    <glyph glyph-name="Q" unicode="Q" horiz-adv-x="820" 
d="M764 340q0 -81 -33.5 -151.5t-93.5 -120.5l115 -138l-89 -81l-132 158q-57 -21 -121 -21q-147 0 -250.5 103.5t-103.5 250.5t103.5 250.5t250.5 103.5t250.5 -103.5t103.5 -250.5zM178 340q0 -101 67 -171.5t165 -70.5q99 0 166 70.5t67 171.5t-67 171.5t-166 70.5
q-98 0 -165 -70.5t-67 -171.5z" />
    <glyph glyph-name="R" unicode="R" horiz-adv-x="684" 
d="M346 224h-150v-224h-120v680h279q116 0 190 -63t74 -165q0 -73 -38.5 -127t-105.5 -80l185 -245h-146zM196 335h155q65 0 107.5 32t42.5 85t-42.5 85t-107.5 32h-155v-234z" />
    <glyph glyph-name="S" unicode="S" horiz-adv-x="668" 
d="M334 695q48 0 92 -11t84.5 -35t67 -67.5t32.5 -102.5h-119q-18 113 -149 113q-62 0 -98.5 -26.5t-36.5 -72.5q0 -38 27 -59t83 -32l86 -17q102 -20 153 -64t51 -123q0 -95 -72.5 -153.5t-190.5 -58.5q-126 0 -204.5 63.5t-87.5 172.5h119q9 -60 56.5 -95t123.5 -35
q62 0 97.5 24.5t35.5 67.5q0 67 -100 84l-112 22q-192 36 -192 193q0 95 69.5 153.5t184.5 58.5z" />
    <glyph glyph-name="T" unicode="T" horiz-adv-x="648" 
d="M620 569h-236v-569h-120v569h-237v111h593v-111z" />
    <glyph glyph-name="U" unicode="U" horiz-adv-x="734" 
d="M668 680v-378q0 -145 -82.5 -231t-218.5 -86t-218.5 86t-82.5 231v378h120v-378q0 -91 50 -148t131 -57t131 57t50 148v378h120z" />
    <glyph glyph-name="V" unicode="V" horiz-adv-x="770" 
d="M748 680l-307 -684h-111l-309 684h132l232 -522l232 522h131z" />
    <glyph glyph-name="W" unicode="W" horiz-adv-x="1077" 
d="M1044 680l-226 -684h-118l-162 467l-161 -467h-118l-226 684h126l160 -496l169 496h101l169 -496l160 496h126z" />
    <glyph glyph-name="X" unicode="X" horiz-adv-x="671" 
d="M516 0l-180 246l-181 -246h-140l239 336l-234 344h147l168 -248l168 248h147l-234 -344l240 -336h-140z" />
    <glyph glyph-name="Y" unicode="Y" horiz-adv-x="689" 
d="M678 680l-272 -451v-229h-122v229l-273 451h133l200 -333l201 333h133z" />
    <glyph glyph-name="Z" unicode="Z" horiz-adv-x="653" 
d="M605 109v-109h-559v57l380 514h-366v109h541v-57l-367 -514h371z" />
    <glyph glyph-name="bracketleft" unicode="[" horiz-adv-x="356" 
d="M177 -25h145v-111h-260v866h260v-111h-145v-644z" />
    <glyph glyph-name="backslash" unicode="\" horiz-adv-x="405" 
d="M131 730l254 -890h-111l-254 890h111z" />
    <glyph glyph-name="bracketright" unicode="]" horiz-adv-x="356" 
d="M31 619v111h260v-866h-260v111h144v644h-144z" />
    <glyph glyph-name="asciicircum" unicode="^" horiz-adv-x="413" 
d="M390 441h-106l-77 153l-78 -153h-106l132 239h103z" />
    <glyph glyph-name="underscore" unicode="_" horiz-adv-x="634" 
d="M33 -100h568v-101h-568v101z" />
    <glyph glyph-name="grave" unicode="`" 
d="M394 557h-105l-98 149h128z" />
    <glyph glyph-name="a" unicode="a" horiz-adv-x="611" 
d="M428 473h115v-473h-115v33q-61 -44 -145 -44q-99 0 -168.5 72t-69.5 175t69.5 175.5t168.5 72.5q84 0 145 -44v33zM300 89q83 0 128 67v161q-45 67 -128 67q-60 0 -100 -44t-40 -104t40 -103.5t100 -43.5z" />
    <glyph glyph-name="b" unicode="b" horiz-adv-x="611" 
d="M328 484q99 0 168.5 -72t69.5 -175t-69.5 -175.5t-168.5 -72.5q-84 0 -144 44v-33h-116v710h116v-270q60 44 144 44zM311 89q60 0 100 43.5t40 104.5q0 60 -40 103.5t-100 43.5q-81 0 -127 -65v-164q45 -66 127 -66z" />
    <glyph glyph-name="c" unicode="c" horiz-adv-x="573" 
d="M296 93q44 0 75 23t39 61h118q-11 -83 -76 -135.5t-156 -52.5q-107 0 -179 71t-72 176q0 106 72 177t179 71q90 0 155.5 -52.5t76.5 -135.5h-118q-8 38 -39 60.5t-75 22.5q-60 0 -98 -41t-38 -102t38 -102t98 -41z" />
    <glyph glyph-name="d" unicode="d" horiz-adv-x="611" 
d="M543 710v-710h-115v34q-61 -45 -145 -45q-99 0 -168.5 72.5t-69.5 175.5t69.5 175t168.5 72q84 0 145 -44v270h115zM300 89q83 0 128 67v162q-45 66 -128 66q-60 0 -100 -43.5t-40 -103.5t40 -104t100 -44z" />
    <glyph glyph-name="e" unicode="e" horiz-adv-x="572" 
d="M527 244q0 -20 -3 -38h-1h-366q8 -53 44 -86t98 -33q70 0 96 44h123q-20 -66 -80.5 -106t-141.5 -40q-111 0 -181.5 72t-70.5 179q0 110 69.5 181t179.5 71q101 0 167 -67.5t67 -176.5zM293 390q-55 0 -89.5 -31t-44.5 -82h251q-6 53 -36.5 83t-80.5 30z" />
    <glyph glyph-name="f" unicode="f" horiz-adv-x="439" 
d="M253 473h185v-97h-185v-376h-116v376h-132v97h132v84q0 91 53 146.5t139 55.5q55 0 110 -15l-17 -100q-43 9 -70 9q-45 0 -72 -26t-27 -70v-84z" />
    <glyph glyph-name="g" unicode="g" horiz-adv-x="616" 
d="M431 473h115v-473q0 -109 -66.5 -172.5t-173.5 -63.5q-100 0 -168 55t-76 141h117q6 -41 40 -66t87 -25q56 0 90.5 34.5t34.5 96.5v56q-61 -44 -146 -44q-98 0 -167.5 69.5t-69.5 164.5q0 105 68.5 173.5t168.5 68.5q85 0 146 -44v29zM302 111q83 0 129 68v142
q-45 67 -129 67q-61 0 -100 -40t-39 -102q0 -52 40 -93.5t99 -41.5z" />
    <glyph glyph-name="h" unicode="h" horiz-adv-x="595" 
d="M330 488q93 0 150 -62t57 -165v-261h-115v254q0 62 -31 95.5t-85 33.5q-66 0 -122 -68v-315h-116v710h116v-276q65 54 146 54z" />
    <glyph glyph-name="i" unicode="i" horiz-adv-x="266" 
d="M133 575q-30 0 -51 20t-21 49q0 30 21 50.5t51 20.5t51 -20.5t21 -50.5q0 -29 -21 -49t-51 -20zM76 473h115v-473h-115v473z" />
    <glyph glyph-name="j" unicode="j" horiz-adv-x="260" 
d="M127 575q-30 0 -51 20t-21 49q0 30 21 50.5t51 20.5t51 -20.5t21 -50.5q0 -29 -21 -49t-51 -20zM185 473v-445q0 -110 -44.5 -162t-160.5 -54l-9 101q57 4 78 25t21 75v460h115z" />
    <glyph glyph-name="k" unicode="k" horiz-adv-x="575" 
d="M270 194l-85 -88v-106h-115v710h115v-452l208 215h147l-190 -196l217 -277h-150z" />
    <glyph glyph-name="l" unicode="l" horiz-adv-x="252" 
d="M184 710v-710h-116v710h116z" />
    <glyph glyph-name="m" unicode="m" horiz-adv-x="910" 
d="M643 488q88 0 147 -63t59 -164v-261h-116v254q0 62 -29.5 95.5t-84.5 33.5q-64 0 -109 -65q6 -27 6 -57v-261h-115v254q0 62 -30 95.5t-84 33.5q-57 0 -103 -63v-320h-116v473h116v-33q51 48 127 48q96 0 154 -72q75 72 178 72z" />
    <glyph glyph-name="n" unicode="n" horiz-adv-x="595" 
d="M330 488q93 0 150 -62t57 -165v-261h-115v254q0 62 -31 95.5t-85 33.5q-66 0 -122 -68v-315h-116v473h116v-39q65 54 146 54z" />
    <glyph glyph-name="o" unicode="o" horiz-adv-x="593" 
d="M297 484q108 0 179.5 -70.5t71.5 -177.5q0 -108 -72 -179.5t-179 -71.5q-108 0 -180 71.5t-72 179.5q0 107 72 177.5t180 70.5zM297 90q60 0 98 42t38 104q0 61 -38 102t-98 41q-61 0 -99 -41t-38 -102q0 -62 38.5 -104t98.5 -42z" />
    <glyph glyph-name="p" unicode="p" horiz-adv-x="611" 
d="M328 484q99 0 168.5 -72.5t69.5 -175.5t-69.5 -175t-168.5 -72q-84 0 -144 44v-270h-116v710h116v-33q60 44 144 44zM311 89q60 0 100 43.5t40 103.5q0 61 -40 104.5t-100 43.5q-82 0 -127 -66v-163q45 -66 127 -66z" />
    <glyph glyph-name="q" unicode="q" horiz-adv-x="611" 
d="M543 473v-710h-115v270q-61 -44 -145 -44q-99 0 -168.5 72t-69.5 175t69.5 175.5t168.5 72.5q84 0 145 -44v33h115zM300 89q83 0 128 67v161q-45 67 -128 67q-60 0 -100 -44t-40 -104t40 -103.5t100 -43.5z" />
    <glyph glyph-name="r" unicode="r" horiz-adv-x="385" 
d="M184 473v-60q67 69 172 69v-109q-111 -4 -172 -79v-294h-116v473h116z" />
    <glyph glyph-name="s" unicode="s" horiz-adv-x="510" 
d="M36 160l106 -1q14 -80 116 -80q42 0 68.5 14t26.5 38q0 39 -57 50l-103 17q-140 25 -140 136q0 70 54.5 111t144.5 41q34 0 66 -7t64 -23t53.5 -48.5t25.5 -78.5l-107 -1q-3 34 -31 51.5t-71 17.5q-40 0 -62.5 -14.5t-22.5 -36.5q0 -42 67 -54l88 -14q141 -25 141 -137
q0 -74 -58 -115t-150 -41q-90 0 -150.5 42t-68.5 133z" />
    <glyph glyph-name="t" unicode="t" horiz-adv-x="446" 
d="M398 104l16 -99q-66 -20 -118 -20q-85 0 -134 53t-49 144v194h-108v97h108v173h115v-173h175v-97h-175v-194q0 -90 90 -90q37 0 80 12z" />
    <glyph glyph-name="u" unicode="u" horiz-adv-x="595" 
d="M527 473v-473h-115v40q-64 -55 -147 -55q-93 0 -150 62t-57 165v261h115v-254q0 -61 31 -95t85 -34q67 0 123 70v313h115z" />
    <glyph glyph-name="v" unicode="v" horiz-adv-x="578" 
d="M558 473l-218 -473h-102l-218 473h123l146 -326l147 326h122z" />
    <glyph glyph-name="w" unicode="w" horiz-adv-x="792" 
d="M772 473l-177 -473h-101l-98 287l-98 -287h-101l-177 473h125l102 -289l100 289h98l99 -290l103 290h125z" />
    <glyph glyph-name="x" unicode="x" horiz-adv-x="552" 
d="M395 0l-118 158l-120 -158h-138l180 239l-179 235h141l114 -151l116 151h141l-179 -236l180 -238h-138z" />
    <glyph glyph-name="y" unicode="y" horiz-adv-x="623" 
d="M594 474l-309 -710h-122l96 220l-235 490h124l170 -354l154 354h122z" />
    <glyph glyph-name="z" unicode="z" horiz-adv-x="497" 
d="M461 473v-62l-254 -315h254v-96h-425v54l259 323h-252v96h418z" />
    <glyph glyph-name="braceleft" unicode="{" horiz-adv-x="354" 
d="M233 561v-143q0 -51 -15 -77t-59 -40q44 -14 59 -39.5t15 -76.5v-144q0 -32 23.5 -51.5t62.5 -19.5v-113q-90 0 -145.5 51t-55.5 133v140q0 44 -18 56.5t-68 12.5v102q50 0 68 12.5t18 56.5v140q0 82 55.5 133t145.5 51v-113q-39 0 -62.5 -19.5t-23.5 -51.5z" />
    <glyph glyph-name="bar" unicode="|" horiz-adv-x="319" 
d="M213 730v-890h-107v890h107z" />
    <glyph glyph-name="braceright" unicode="}" horiz-adv-x="367" 
d="M133 418v143q0 32 -23.5 51.5t-62.5 19.5v113q91 0 146 -50.5t55 -133.5v-140q0 -44 18.5 -56.5t67.5 -12.5v-102q-49 0 -67.5 -12.5t-18.5 -56.5v-140q0 -83 -55 -133.5t-146 -50.5v113q39 0 62.5 19.5t23.5 51.5v144q0 51 15 76.5t60 39.5q-44 14 -59.5 40t-15.5 77z
" />
    <glyph glyph-name="asciitilde" unicode="~" horiz-adv-x="445" 
d="M318 404h102q0 -48 -19 -81t-47 -46t-59.5 -12t-57.5 16l-56 34q-28 14 -41.5 4t-13.5 -34h-101q0 48 19 81t47 46t59.5 12.5t57.5 -15.5l55 -35q28 -14 41.5 -3.5t13.5 33.5z" />
    <glyph glyph-name="exclamdown" unicode="&#xa1;" horiz-adv-x="279" 
d="M139 484q30 0 51 -20t21 -49t-21 -49t-51 -20q-29 0 -50 20t-21 49t21 49t50 20zM79 -205l9 470h103l9 -470h-121z" />
    <glyph glyph-name="cent" unicode="&#xa2;" horiz-adv-x="573" 
d="M296 93q44 0 75 23t39 61h118q-10 -71 -58.5 -120t-120.5 -63v-106h-104v106q-88 17 -144 84t-56 158q0 92 56 159t144 84v120h104v-120q72 -14 120.5 -63.5t58.5 -119.5h-118q-8 38 -39 60.5t-75 22.5q-60 0 -98 -41t-38 -102t38 -102t98 -41z" />
    <glyph glyph-name="sterling" unicode="&#xa3;" horiz-adv-x="615" 
d="M212 101h362v-101h-540v101h63v175h-63v101h63v79q0 107 67.5 173t177.5 66q101 0 166.5 -56t76.5 -149h-117q-9 48 -42.5 75.5t-83.5 27.5q-58 0 -94 -37.5t-36 -99.5v-79h205v-101h-205v-175z" />
    <glyph glyph-name="yen" unicode="&#xa5;" horiz-adv-x="689" 
d="M443 291h139v-84h-176v-51h176v-84h-176v-72h-122v72h-177v84h177v51h-177v84h139l-235 389h133l200 -333l201 333h133z" />
    <glyph glyph-name="brokenbar" unicode="&#xa6;" horiz-adv-x="319" 
d="M213 336h-107v394h107v-394zM213 -160h-107v394h107v-394z" />
    <glyph glyph-name="section" unicode="&#xa7;" horiz-adv-x="544" 
d="M511 228q0 -85 -75 -124q31 -43 31 -99q0 -77 -55.5 -121t-140.5 -44q-90 0 -148 50.5t-69 134.5h126q4 -37 26.5 -59t63.5 -22q34 0 55.5 17.5t21.5 47.5q0 48 -59 74l-115 54q-77 35 -108.5 74.5t-31.5 91.5q0 85 75 124q-31 43 -31 99q0 76 55.5 120t140.5 44
q91 0 148.5 -50.5t68.5 -133.5h-126q-4 37 -26.5 59t-63.5 22q-34 0 -55.5 -17.5t-21.5 -47.5q0 -47 59 -74l115 -54q77 -36 108.5 -75.5t31.5 -90.5zM348 171l3 -1q20 5 32 20.5t12 35.5q0 41 -75 76l-124 58l-2 1q-45 -12 -45 -57q0 -41 75 -76z" />
    <glyph glyph-name="dieresis" unicode="&#xa8;" 
d="M196 693q31 0 52 -20t21 -50t-21 -50t-52 -20q-30 0 -51.5 20t-21.5 50t21.5 50t51.5 20zM404 693q31 0 52 -20t21 -50t-21 -50t-52 -20q-30 0 -51.5 20t-21.5 50t21.5 50t51.5 20z" />
    <glyph glyph-name="copyright" unicode="&#xa9;" horiz-adv-x="840" 
d="M420 695q150 0 257 -102t107 -253t-107 -253t-257 -102t-257 102t-107 253t107 253t257 102zM419 61q115 0 199.5 81.5t84.5 197.5t-84.5 197.5t-199.5 81.5t-199 -81t-84 -198t84 -198t199 -81zM421 427q-38 0 -63 -25.5t-25 -63.5q0 -37 25 -63t63 -26q27 0 48.5 14
t29.5 37h90q-11 -60 -57.5 -96t-109.5 -36q-75 0 -125 48.5t-50 121.5t50.5 122t124.5 49q63 0 109.5 -36.5t57.5 -95.5h-90q-8 23 -29.5 36.5t-48.5 13.5z" />
    <glyph glyph-name="ordfeminine" unicode="&#xaa;" horiz-adv-x="353" 
d="M178 685q65 0 103.5 -37t38.5 -102v-186h-79v15q-42 -22 -87 -22q-60 0 -96 27.5t-36 75.5q0 44 32.5 67t88.5 23h98q0 70 -63 70q-57 0 -62 -44h-80q3 56 45 84.5t97 28.5zM158 418q44 0 83 27v42h-103q-18 0 -28.5 -8t-10.5 -20q0 -17 14.5 -29t44.5 -12z" />
    <glyph glyph-name="guillemotleft" unicode="&#xab;" horiz-adv-x="451" 
d="M238 405l-96 -153l96 -153h-112l-96 153l96 153h112zM421 405l-97 -153l97 -153h-112l-96 153l96 153h112z" />
    <glyph glyph-name="registered" unicode="&#xae;" horiz-adv-x="566" 
d="M283 692q103 0 176.5 -70t73.5 -174q0 -103 -73.5 -173t-176.5 -70t-176.5 70t-73.5 173q0 104 73.5 174t176.5 70zM282 264q76 0 131 54t55 130q0 77 -55 131t-131 54q-75 0 -130 -54t-55 -131q0 -76 55 -130t130 -54zM379 486q0 -47 -43 -65l51 -72h-59l-44 64h-34v-64
h-47v213h91q38 0 61.5 -21t23.5 -55zM250 455h44q36 0 36 32q0 14 -10 22t-26 8h-44v-62z" />
    <glyph glyph-name="macron" unicode="&#xaf;" 
d="M440 671v-95h-280v95h280z" />
    <glyph glyph-name="degree" unicode="&#xb0;" horiz-adv-x="471" 
d="M236 695q74 0 123.5 -48t49.5 -120q0 -73 -49.5 -121t-123.5 -48q-75 0 -124 48t-49 121q0 72 49 120t124 48zM236 444q34 0 59 24.5t25 58.5t-24.5 58t-59.5 24t-60 -24t-25 -58t25 -58.5t60 -24.5z" />
    <glyph glyph-name="plusminus" unicode="&#xb1;" horiz-adv-x="685" 
d="M581 322h-183v-137h-110v137h-184v107h184v138h110v-138h183v-107zM581 142v-107h-477v107h477z" />
    <glyph glyph-name="twosuperior" unicode="&#xb2;" horiz-adv-x="366" 
d="M333 361v-72h-293v45l144 153q32 32 44 50.5t12 37.5q0 21 -15 34.5t-39 13.5q-59 0 -62 -58h-86q1 61 39 97.5t106 36.5t106 -34.5t38 -84.5q0 -55 -69 -132l-80 -87h155z" />
    <glyph glyph-name="threesuperior" unicode="&#xb3;" horiz-adv-x="379" 
d="M287 494q54 -28 54 -88q0 -53 -41.5 -88t-108.5 -35q-65 0 -105.5 32.5t-50.5 89.5h87q14 -47 70 -47q30 0 48 13.5t18 34.5q0 50 -75 50h-32v70h32q27 0 44 14t17 36t-15 35t-41 13q-25 0 -39 -13t-16 -34h-87q5 56 42.5 89t98.5 33q63 0 101 -34.5t38 -88.5
q0 -52 -39 -82z" />
    <glyph glyph-name="acute" unicode="&#xb4;" 
d="M437 706l-98 -149h-105l75 149h128z" />
    <glyph glyph-name="paragraph" unicode="&#xb6;" horiz-adv-x="766" 
d="M698 680v-840h-120v737h-98v-737h-119v372h-82q-109 0 -182 67t-73 173q0 101 73 164.5t182 63.5h419zM361 577h-82q-61 0 -99 -35t-38 -91q0 -58 38 -94t99 -36h82v256z" />
    <glyph glyph-name="periodcentered" unicode="&#xb7;" horiz-adv-x="209" 
d="M104 200q-29 0 -50 20t-21 49t21 49t50 20q30 0 51 -20t21 -49t-21 -49t-51 -20z" />
    <glyph glyph-name="cedilla" unicode="&#xb8;" 
d="M307 -211h-99l44 156h114z" />
    <glyph glyph-name="onesuperior" unicode="&#xb9;" horiz-adv-x="333" 
d="M325 364v-72h-295v72h108v237l-103 -30v75l140 46h46v-328h104z" />
    <glyph glyph-name="ordmasculine" unicode="&#xba;" horiz-adv-x="387" 
d="M194 687q72 0 119.5 -47t47.5 -118q0 -73 -47.5 -121t-119.5 -48t-120 48t-48 121q0 71 48 118t120 47zM194 426q38 0 62 28t24 68q0 38 -24 64.5t-62 26.5q-39 0 -63 -26.5t-24 -64.5q0 -41 24 -68.5t63 -27.5z" />
    <glyph glyph-name="guillemotright" unicode="&#xbb;" horiz-adv-x="451" 
d="M238 252l-96 -153h-112l96 153l-96 153h112zM421 252l-97 -153h-111l96 153l-96 153h111z" />
    <glyph glyph-name="onequarter" unicode="&#xbc;" horiz-adv-x="917" 
d="M736 680l-462 -680h-81l462 680h81zM30 279v72h108v237l-103 -30v75l140 46h46v-328h104v-72h-295zM884 77h-54v-77h-85v77h-214v55l117 269h90l-105 -248h112v112h85v-112h54v-76z" />
    <glyph glyph-name="onehalf" unicode="&#xbd;" horiz-adv-x="906" 
d="M741 680l-462 -680h-81l462 680h81zM30 279v72h108v237l-103 -30v75l140 46h46v-328h104v-72h-295zM873 72v-72h-293v45l144 153q32 32 44 50.5t12 37.5q0 21 -15 34.5t-39 13.5q-59 0 -62 -58h-86q1 61 39 97.5t106 36.5t106 -34.5t38 -84.5q0 -55 -69 -132l-80 -87h155
z" />
    <glyph glyph-name="threequarters" unicode="&#xbe;" horiz-adv-x="900" 
d="M343 397q0 -53 -41.5 -88t-108.5 -35q-65 0 -105.5 32.5t-50.5 89.5h87q14 -47 70 -47q30 0 48 13.5t18 34.5q0 50 -75 50h-32v70h32q27 0 44 14t17 36t-15 35t-41 13q-25 0 -39 -13t-16 -34h-87q5 56 42.5 89t98.5 33q63 0 101 -34.5t38 -88.5q0 -52 -39 -82
q54 -28 54 -88zM719 680l-462 -680h-81l462 680h81zM867 77h-54v-77h-85v77h-214v55l117 269h90l-105 -248h112v112h85v-112h54v-76z" />
    <glyph glyph-name="questiondown" unicode="&#xbf;" horiz-adv-x="534" 
d="M300 550q29 0 50 -20t21 -49t-21 -49t-50 -20q-30 0 -51 20t-21 49t21 49t51 20zM342 334l9 -155h-65q-53 0 -88.5 -31.5t-35.5 -82.5q0 -50 31.5 -81.5t82.5 -31.5q45 0 76.5 25t37.5 67h116q-8 -89 -67 -142t-158 -53t-165 60t-66 155q0 82 53 133.5t144 60.5l5 76h90z
" />
    <glyph glyph-name="Agrave" unicode="&#xc0;" horiz-adv-x="750" 
d="M335 755l-98 149h128l75 -149h-105zM538 151h-325l-63 -151h-129l299 684h112l297 -684h-127zM492 262l-116 276l-116 -276h232z" />
    <glyph glyph-name="Aacute" unicode="&#xc1;" horiz-adv-x="750" 
d="M425 755h-105l75 149h128zM538 151h-325l-63 -151h-129l299 684h112l297 -684h-127zM492 262l-116 276l-116 -276h232z" />
    <glyph glyph-name="Acircumflex" unicode="&#xc2;" horiz-adv-x="750" 
d="M308 756h-108l119 152h110l120 -152h-109l-65 79zM538 151h-325l-63 -151h-129l299 684h112l297 -684h-127zM492 262l-116 276l-116 -276h232z" />
    <glyph glyph-name="Atilde" unicode="&#xc3;" horiz-adv-x="750" 
d="M386 776l-47 29q-26 13 -38 4t-12 -30h-93q0 43 17 73t43 41.5t54.5 11t52.5 -14.5l46 -29q27 -13 39 -4t12 30h92q0 -43 -17 -73t-42 -42t-54 -11t-53 15zM538 151h-325l-63 -151h-129l299 684h112l297 -684h-127zM492 262l-116 276l-116 -276h232z" />
    <glyph glyph-name="Adieresis" unicode="&#xc4;" horiz-adv-x="750" 
d="M270 754q-30 0 -51.5 20t-21.5 50t21.5 50t51.5 20q31 0 52 -20t21 -50t-21 -50t-52 -20zM478 754q-30 0 -51.5 20t-21.5 50t21.5 50t51.5 20q31 0 52 -20t21 -50t-21 -50t-52 -20zM538 151h-325l-63 -151h-129l299 684h112l297 -684h-127zM492 262l-116 276l-116 -276
h232z" />
    <glyph glyph-name="Aring" unicode="&#xc5;" horiz-adv-x="750" 
d="M375 763q-50 0 -80.5 29t-30.5 76t30.5 76t80.5 29t81 -29t31 -76t-31 -76t-81 -29zM375 914q-20 0 -33 -13t-13 -33t13 -33t33 -13q21 0 34 13t13 33t-13 33t-34 13zM538 151h-325l-63 -151h-129l299 684h112l297 -684h-127zM492 262l-116 276l-116 -276h232z" />
    <glyph glyph-name="AE" unicode="&#xc6;" horiz-adv-x="1107" 
d="M686 569v-178h334v-111h-334v-169h374v-111h-493v151h-281l-116 -151h-147l532 680h505v-111h-374zM567 262v254l-195 -254h195z" />
    <glyph glyph-name="Ccedilla" unicode="&#xc7;" horiz-adv-x="797" 
d="M410 101q80 0 133.5 42.5t73.5 120.5h124q-24 -127 -113.5 -202.5t-217.5 -75.5q-149 0 -251.5 101t-102.5 253t102.5 253t251.5 101q128 0 217.5 -75.5t113.5 -202.5h-124q-20 78 -73.5 120.5t-133.5 42.5q-100 0 -166 -67t-66 -172t66 -172t166 -67zM350 -55h114
l-59 -156h-99z" />
    <glyph glyph-name="Egrave" unicode="&#xc8;" horiz-adv-x="617" 
d="M279 755l-98 149h128l75 -149h-105zM196 569v-178h334v-111h-334v-169h374v-111h-494v680h494v-111h-374z" />
    <glyph glyph-name="Eacute" unicode="&#xc9;" horiz-adv-x="617" 
d="M369 755h-105l75 149h128zM196 569v-178h334v-111h-334v-169h374v-111h-494v680h494v-111h-374z" />
    <glyph glyph-name="Ecircumflex" unicode="&#xca;" horiz-adv-x="617" 
d="M253 756h-108l119 152h110l120 -152h-109l-65 79zM196 569v-178h334v-111h-334v-169h374v-111h-494v680h494v-111h-374z" />
    <glyph glyph-name="Edieresis" unicode="&#xcb;" horiz-adv-x="617" 
d="M215 754q-30 0 -51.5 20t-21.5 50t21.5 50t51.5 20q31 0 52 -20t21 -50t-21 -50t-52 -20zM423 754q-30 0 -51.5 20t-21.5 50t21.5 50t51.5 20q31 0 52 -20t21 -50t-21 -50t-52 -20zM196 569v-178h334v-111h-334v-169h374v-111h-494v680h494v-111h-374z" />
    <glyph glyph-name="Igrave" unicode="&#xcc;" horiz-adv-x="273" 
d="M201 755h-105l-98 149h128zM196 680v-680h-120v680h120z" />
    <glyph glyph-name="Iacute" unicode="&#xcd;" horiz-adv-x="273" 
d="M284 904l-98 -149h-105l75 149h128zM196 680v-680h-120v680h120z" />
    <glyph glyph-name="Icircumflex" unicode="&#xce;" horiz-adv-x="273" 
d="M136 835l-67 -79h-108l119 152h110l120 -152h-109zM196 680v-680h-120v680h120z" />
    <glyph glyph-name="Idieresis" unicode="&#xcf;" horiz-adv-x="273" 
d="M31 894q31 0 52 -20t21 -50t-21 -50t-52 -20q-30 0 -51.5 20t-21.5 50t21.5 50t51.5 20zM239 894q31 0 52 -20t21 -50t-21 -50t-52 -20q-30 0 -51.5 20t-21.5 50t21.5 50t51.5 20zM196 680v-680h-120v680h120z" />
    <glyph glyph-name="Eth" unicode="&#xd0;" horiz-adv-x="741" 
d="M76 680h255q157 0 260 -95.5t103 -241.5q0 -148 -103 -245.5t-260 -97.5h-255v278h-64v111h64v291zM196 111h135q102 0 171 67t69 165q0 96 -69 161t-171 65h-135v-180h136v-111h-136v-167z" />
    <glyph glyph-name="Ntilde" unicode="&#xd1;" horiz-adv-x="754" 
d="M388 776l-47 29q-26 13 -38 4t-12 -30h-93q0 43 17 73t43 41.5t54.5 11t52.5 -14.5l46 -29q27 -13 39 -4t12 30h92q0 -43 -17 -73t-42 -42t-54 -11t-53 15zM677 680v-680h-94l-387 458v-458h-120v680h91l391 -469v469h119z" />
    <glyph glyph-name="Ograve" unicode="&#xd2;" horiz-adv-x="820" 
d="M475 755h-105l-98 149h128zM410 694q147 0 250.5 -103.5t103.5 -250.5t-103.5 -250.5t-250.5 -103.5t-250.5 103.5t-103.5 250.5t103.5 250.5t250.5 103.5zM410 98q99 0 166 70.5t67 171.5t-67 171.5t-166 70.5q-98 0 -165 -70.5t-67 -171.5t67 -171.5t165 -70.5z" />
    <glyph glyph-name="Oacute" unicode="&#xd3;" horiz-adv-x="820" 
d="M557 904l-98 -149h-105l75 149h128zM410 694q147 0 250.5 -103.5t103.5 -250.5t-103.5 -250.5t-250.5 -103.5t-250.5 103.5t-103.5 250.5t103.5 250.5t250.5 103.5zM410 98q99 0 166 70.5t67 171.5t-67 171.5t-166 70.5q-98 0 -165 -70.5t-67 -171.5t67 -171.5t165 -70.5
z" />
    <glyph glyph-name="Ocircumflex" unicode="&#xd4;" horiz-adv-x="820" 
d="M410 835l-67 -79h-108l119 152h110l120 -152h-109zM410 694q147 0 250.5 -103.5t103.5 -250.5t-103.5 -250.5t-250.5 -103.5t-250.5 103.5t-103.5 250.5t103.5 250.5t250.5 103.5zM410 98q99 0 166 70.5t67 171.5t-67 171.5t-166 70.5q-98 0 -165 -70.5t-67 -171.5
t67 -171.5t165 -70.5z" />
    <glyph glyph-name="Otilde" unicode="&#xd5;" horiz-adv-x="820" 
d="M495 887h92q0 -43 -17 -73t-42 -42t-54 -11t-53 15l-47 29q-26 13 -38 4t-12 -30h-93q0 43 17 73t43 41.5t54.5 11t52.5 -14.5l46 -29q27 -13 39 -4t12 30zM410 694q147 0 250.5 -103.5t103.5 -250.5t-103.5 -250.5t-250.5 -103.5t-250.5 103.5t-103.5 250.5t103.5 250.5
t250.5 103.5zM410 98q99 0 166 70.5t67 171.5t-67 171.5t-166 70.5q-98 0 -165 -70.5t-67 -171.5t67 -171.5t165 -70.5z" />
    <glyph glyph-name="Odieresis" unicode="&#xd6;" horiz-adv-x="820" 
d="M305 894q31 0 52 -20t21 -50t-21 -50t-52 -20q-30 0 -51.5 20t-21.5 50t21.5 50t51.5 20zM513 894q31 0 52 -20t21 -50t-21 -50t-52 -20q-30 0 -51.5 20t-21.5 50t21.5 50t51.5 20zM410 694q147 0 250.5 -103.5t103.5 -250.5t-103.5 -250.5t-250.5 -103.5t-250.5 103.5
t-103.5 250.5t103.5 250.5t250.5 103.5zM410 98q99 0 166 70.5t67 171.5t-67 171.5t-166 70.5q-98 0 -165 -70.5t-67 -171.5t67 -171.5t165 -70.5z" />
    <glyph glyph-name="multiply" unicode="&#xd7;" horiz-adv-x="677" 
d="M560 176l-76 -76l-145 146l-146 -146l-76 76l146 146l-146 145l76 76l146 -145l145 145l76 -76l-145 -145z" />
    <glyph glyph-name="Oslash" unicode="&#xd8;" horiz-adv-x="820" 
d="M717 635l-46 -55q93 -101 93 -240q0 -147 -103.5 -250.5t-250.5 -103.5q-105 0 -191 56l-54 -64l-72 60l54 64q-91 101 -91 238q0 147 103.5 250.5t250.5 103.5q102 0 189 -54l46 55zM178 340q0 -81 46 -146l301 358q-54 30 -115 30q-98 0 -165 -70.5t-67 -171.5zM410 98
q99 0 166 70.5t67 171.5q0 83 -48 149l-302 -359q54 -32 117 -32z" />
    <glyph glyph-name="Ugrave" unicode="&#xd9;" horiz-adv-x="734" 
d="M432 755h-105l-98 149h128zM668 680v-378q0 -145 -82.5 -231t-218.5 -86t-218.5 86t-82.5 231v378h120v-378q0 -91 50 -148t131 -57t131 57t50 148v378h120z" />
    <glyph glyph-name="Uacute" unicode="&#xda;" horiz-adv-x="734" 
d="M515 904l-98 -149h-105l75 149h128zM668 680v-378q0 -145 -82.5 -231t-218.5 -86t-218.5 86t-82.5 231v378h120v-378q0 -91 50 -148t131 -57t131 57t50 148v378h120z" />
    <glyph glyph-name="Ucircumflex" unicode="&#xdb;" horiz-adv-x="734" 
d="M368 835l-67 -79h-108l119 152h110l120 -152h-109zM668 680v-378q0 -145 -82.5 -231t-218.5 -86t-218.5 86t-82.5 231v378h120v-378q0 -91 50 -148t131 -57t131 57t50 148v378h120z" />
    <glyph glyph-name="Udieresis" unicode="&#xdc;" horiz-adv-x="734" 
d="M263 894q31 0 52 -20t21 -50t-21 -50t-52 -20q-30 0 -51.5 20t-21.5 50t21.5 50t51.5 20zM471 894q31 0 52 -20t21 -50t-21 -50t-52 -20q-30 0 -51.5 20t-21.5 50t21.5 50t51.5 20zM668 680v-378q0 -145 -82.5 -231t-218.5 -86t-218.5 86t-82.5 231v378h120v-378
q0 -91 50 -148t131 -57t131 57t50 148v378h120z" />
    <glyph glyph-name="Yacute" unicode="&#xdd;" horiz-adv-x="689" 
d="M394 755h-105l75 149h128zM678 680l-272 -451v-229h-122v229l-273 451h133l200 -333l201 333h133z" />
    <glyph glyph-name="Thorn" unicode="&#xde;" horiz-adv-x="627" 
d="M196 582h136q122 0 195.5 -64t73.5 -170q0 -112 -78.5 -179.5t-207.5 -67.5h-119v-101h-120v680h120v-98zM196 211h132q69 0 111.5 38t42.5 99q0 55 -42.5 89t-111.5 34h-132v-260z" />
    <glyph glyph-name="germandbls" unicode="&#xdf;" horiz-adv-x="643" 
d="M458 362q66 -16 101.5 -58.5t35.5 -108.5q0 -93 -66.5 -146.5t-184.5 -53.5q-28 0 -63 3v96q23 -1 56 -1q72 0 109 28t37 76q0 45 -32.5 70t-86.5 25h-63v85q66 11 95 44.5t29 74.5q0 43 -28.5 70.5t-81.5 27.5q-64 1 -98.5 -42t-34.5 -127v-425h-115v425q0 128 65 199
t181 71q104 0 164 -54t60 -143q0 -94 -79 -136z" />
    <glyph glyph-name="agrave" unicode="&#xe0;" horiz-adv-x="611" 
d="M378 554h-105l-98 149h128zM428 473h115v-473h-115v33q-61 -44 -145 -44q-99 0 -168.5 72t-69.5 175t69.5 175.5t168.5 72.5q84 0 145 -44v33zM300 89q83 0 128 67v161q-45 67 -128 67q-60 0 -100 -44t-40 -104t40 -103.5t100 -43.5z" />
    <glyph glyph-name="aacute" unicode="&#xe1;" horiz-adv-x="611" 
d="M461 703l-98 -149h-105l75 149h128zM428 473h115v-473h-115v33q-61 -44 -145 -44q-99 0 -168.5 72t-69.5 175t69.5 175.5t168.5 72.5q84 0 145 -44v33zM300 89q83 0 128 67v161q-45 67 -128 67q-60 0 -100 -44t-40 -104t40 -103.5t100 -43.5z" />
    <glyph glyph-name="acircumflex" unicode="&#xe2;" horiz-adv-x="611" 
d="M314 624l-67 -79h-108l119 152h110l120 -152h-109zM428 473h115v-473h-115v33q-61 -44 -145 -44q-99 0 -168.5 72t-69.5 175t69.5 175.5t168.5 72.5q84 0 145 -44v33zM300 89q83 0 128 67v161q-45 67 -128 67q-60 0 -100 -44t-40 -104t40 -103.5t100 -43.5z" />
    <glyph glyph-name="atilde" unicode="&#xe3;" horiz-adv-x="611" 
d="M328 575l-47 29q-26 13 -38 4t-12 -30h-93q0 43 17 73t43 41.5t54.5 11t52.5 -14.5l46 -29q27 -13 39 -4t12 30h92q0 -43 -17 -73t-42 -42t-54 -11t-53 15zM428 473h115v-473h-115v33q-61 -44 -145 -44q-99 0 -168.5 72t-69.5 175t69.5 175.5t168.5 72.5q84 0 145 -44v33
zM300 89q83 0 128 67v161q-45 67 -128 67q-60 0 -100 -44t-40 -104t40 -103.5t100 -43.5z" />
    <glyph glyph-name="adieresis" unicode="&#xe4;" horiz-adv-x="611" 
d="M210 556q-30 0 -51.5 20t-21.5 50t21.5 50t51.5 20q31 0 52 -20t21 -50t-21 -50t-52 -20zM418 556q-30 0 -51.5 20t-21.5 50t21.5 50t51.5 20q31 0 52 -20t21 -50t-21 -50t-52 -20zM428 473h115v-473h-115v33q-61 -44 -145 -44q-99 0 -168.5 72t-69.5 175t69.5 175.5
t168.5 72.5q84 0 145 -44v33zM300 89q83 0 128 67v161q-45 67 -128 67q-60 0 -100 -44t-40 -104t40 -103.5t100 -43.5z" />
    <glyph glyph-name="aring" unicode="&#xe5;" horiz-adv-x="611" 
d="M313 542q-50 0 -80.5 29t-30.5 76t30.5 76t80.5 29t81 -29t31 -76t-31 -76t-81 -29zM313 693q-20 0 -33 -13t-13 -33t13 -33t33 -13q21 0 34 13t13 33t-13 33t-34 13zM428 473h115v-473h-115v33q-61 -44 -145 -44q-99 0 -168.5 72t-69.5 175t69.5 175.5t168.5 72.5
q84 0 145 -44v33zM300 89q83 0 128 67v161q-45 67 -128 67q-60 0 -100 -44t-40 -104t40 -103.5t100 -43.5z" />
    <glyph glyph-name="ae" unicode="&#xe6;" horiz-adv-x="895" 
d="M850 244q0 -20 -3 -38h-1h-362l-1 -15q12 -47 47 -75.5t92 -28.5q70 0 96 44h123q-20 -66 -80.5 -106t-141.5 -40q-111 0 -182 73q-85 -68 -203 -68q-91 0 -144.5 41t-53.5 112q0 65 48 99.5t132 34.5h154v1q0 110 -102 110q-39 0 -65.5 -18t-30.5 -50h-116
q6 82 67.5 124.5t144.5 42.5q110 0 170 -69q68 70 178 70q102 0 167.5 -67.5t66.5 -176.5zM484 286v-9h249q-6 53 -36.5 83t-80.5 30q-53 0 -86.5 -28.5t-45.5 -75.5zM239 85q76 0 146 53q-10 28 -14 53h-163q-29 0 -45.5 -11.5t-16.5 -31.5q0 -26 23.5 -44.5t69.5 -18.5z
" />
    <glyph glyph-name="ccedilla" unicode="&#xe7;" horiz-adv-x="573" 
d="M296 93q44 0 75 23t39 61h118q-11 -83 -76 -135.5t-156 -52.5q-107 0 -179 71t-72 176q0 106 72 177t179 71q90 0 155.5 -52.5t76.5 -135.5h-118q-8 38 -39 60.5t-75 22.5q-60 0 -98 -41t-38 -102t38 -102t98 -41zM238 -55h114l-59 -156h-99z" />
    <glyph glyph-name="egrave" unicode="&#xe8;" horiz-adv-x="572" 
d="M358 554h-105l-98 149h128zM527 244q0 -20 -3 -38h-1h-366q8 -53 44 -86t98 -33q70 0 96 44h123q-20 -66 -80.5 -106t-141.5 -40q-111 0 -181.5 72t-70.5 179q0 110 69.5 181t179.5 71q101 0 167 -67.5t67 -176.5zM293 390q-55 0 -89.5 -31t-44.5 -82h251q-6 53 -36.5 83
t-80.5 30z" />
    <glyph glyph-name="eacute" unicode="&#xe9;" horiz-adv-x="572" 
d="M440 703l-98 -149h-105l75 149h128zM527 244q0 -20 -3 -38h-1h-366q8 -53 44 -86t98 -33q70 0 96 44h123q-20 -66 -80.5 -106t-141.5 -40q-111 0 -181.5 72t-70.5 179q0 110 69.5 181t179.5 71q101 0 167 -67.5t67 -176.5zM293 390q-55 0 -89.5 -31t-44.5 -82h251
q-6 53 -36.5 83t-80.5 30z" />
    <glyph glyph-name="ecircumflex" unicode="&#xea;" horiz-adv-x="572" 
d="M293 624l-67 -79h-108l119 152h110l120 -152h-109zM527 244q0 -20 -3 -38h-1h-366q8 -53 44 -86t98 -33q70 0 96 44h123q-20 -66 -80.5 -106t-141.5 -40q-111 0 -181.5 72t-70.5 179q0 110 69.5 181t179.5 71q101 0 167 -67.5t67 -176.5zM293 390q-55 0 -89.5 -31
t-44.5 -82h251q-6 53 -36.5 83t-80.5 30z" />
    <glyph glyph-name="edieresis" unicode="&#xeb;" horiz-adv-x="572" 
d="M189 556q-30 0 -51.5 20t-21.5 50t21.5 50t51.5 20q31 0 52 -20t21 -50t-21 -50t-52 -20zM397 556q-30 0 -51.5 20t-21.5 50t21.5 50t51.5 20q31 0 52 -20t21 -50t-21 -50t-52 -20zM527 244q0 -20 -3 -38h-1h-366q8 -53 44 -86t98 -33q70 0 96 44h123q-20 -66 -80.5 -106
t-141.5 -40q-111 0 -181.5 72t-70.5 179q0 110 69.5 181t179.5 71q101 0 167 -67.5t67 -176.5zM293 390q-55 0 -89.5 -31t-44.5 -82h251q-6 53 -36.5 83t-80.5 30z" />
    <glyph glyph-name="igrave" unicode="&#xec;" horiz-adv-x="266" 
d="M198 554h-105l-98 149h128zM191 473v-473h-115v473h115z" />
    <glyph glyph-name="iacute" unicode="&#xed;" horiz-adv-x="266" 
d="M280 703l-98 -149h-105l75 149h128zM191 473v-473h-115v473h115z" />
    <glyph glyph-name="icircumflex" unicode="&#xee;" horiz-adv-x="266" 
d="M133 624l-67 -79h-108l119 152h110l120 -152h-109zM191 473v-473h-115v473h115z" />
    <glyph glyph-name="idieresis" unicode="&#xef;" horiz-adv-x="266" 
d="M29 696q31 0 52 -20t21 -50t-21 -50t-52 -20q-30 0 -51.5 20t-21.5 50t21.5 50t51.5 20zM237 696q31 0 52 -20t21 -50t-21 -50t-52 -20q-30 0 -51.5 20t-21.5 50t21.5 50t51.5 20zM191 473v-473h-115v473h115z" />
    <glyph glyph-name="eth" unicode="&#xf0;" horiz-adv-x="589" 
d="M453 616l-54 -20q149 -149 149 -360q0 -108 -72 -179.5t-179 -71.5q-108 0 -180 71.5t-72 179.5q0 107 72 177.5t180 70.5q36 0 74 -15q-30 46 -80 88l-149 -54l-29 76l95 35q-45 26 -104 51l117 50q52 -22 106 -58l97 35zM297 90q60 0 98 42t38 104q0 61 -38 102t-98 41
q-61 0 -99 -41t-38 -102q0 -62 38.5 -104t98.5 -42z" />
    <glyph glyph-name="ntilde" unicode="&#xf1;" horiz-adv-x="595" 
d="M315 575l-47 29q-26 13 -38 4t-12 -30h-93q0 43 17 73t43 41.5t54.5 11t52.5 -14.5l46 -29q27 -13 39 -4t12 30h92q0 -43 -17 -73t-42 -42t-54 -11t-53 15zM330 488q93 0 150 -62t57 -165v-261h-115v254q0 62 -31 95.5t-85 33.5q-66 0 -122 -68v-315h-116v473h116v-39
q65 54 146 54z" />
    <glyph glyph-name="ograve" unicode="&#xf2;" horiz-adv-x="593" 
d="M286 703l75 -149h-105l-98 149h128zM297 484q108 0 179.5 -70.5t71.5 -177.5q0 -108 -72 -179.5t-179 -71.5q-108 0 -180 71.5t-72 179.5q0 107 72 177.5t180 70.5zM297 90q60 0 98 42t38 104q0 61 -38 102t-98 41q-61 0 -99 -41t-38 -102q0 -62 38.5 -104t98.5 -42z" />
    <glyph glyph-name="oacute" unicode="&#xf3;" horiz-adv-x="593" 
d="M316 703h128l-98 -149h-105zM297 484q108 0 179.5 -70.5t71.5 -177.5q0 -108 -72 -179.5t-179 -71.5q-108 0 -180 71.5t-72 179.5q0 107 72 177.5t180 70.5zM297 90q60 0 98 42t38 104q0 61 -38 102t-98 41q-61 0 -99 -41t-38 -102q0 -62 38.5 -104t98.5 -42z" />
    <glyph glyph-name="ocircumflex" unicode="&#xf4;" horiz-adv-x="593" 
d="M362 545l-65 79l-67 -79h-108l119 152h110l120 -152h-109zM297 484q108 0 179.5 -70.5t71.5 -177.5q0 -108 -72 -179.5t-179 -71.5q-108 0 -180 71.5t-72 179.5q0 107 72 177.5t180 70.5zM297 90q60 0 98 42t38 104q0 61 -38 102t-98 41q-61 0 -99 -41t-38 -102
q0 -62 38.5 -104t98.5 -42z" />
    <glyph glyph-name="otilde" unicode="&#xf5;" horiz-adv-x="593" 
d="M386 686h92q0 -43 -17 -73t-42 -42t-54 -11t-53 15l-47 29q-26 13 -38 4t-12 -30h-93q0 43 17 73t43 41.5t54.5 11t52.5 -14.5l46 -29q27 -13 39 -4t12 30zM297 484q108 0 179.5 -70.5t71.5 -177.5q0 -108 -72 -179.5t-179 -71.5q-108 0 -180 71.5t-72 179.5
q0 107 72 177.5t180 70.5zM297 90q60 0 98 42t38 104q0 61 -38 102t-98 41q-61 0 -99 -41t-38 -102q0 -62 38.5 -104t98.5 -42z" />
    <glyph glyph-name="odieresis" unicode="&#xf6;" horiz-adv-x="593" 
d="M193 696q31 0 52 -20t21 -50t-21 -50t-52 -20q-30 0 -51.5 20t-21.5 50t21.5 50t51.5 20zM401 696q31 0 52 -20t21 -50t-21 -50t-52 -20q-30 0 -51.5 20t-21.5 50t21.5 50t51.5 20zM297 484q108 0 179.5 -70.5t71.5 -177.5q0 -108 -72 -179.5t-179 -71.5
q-108 0 -180 71.5t-72 179.5q0 107 72 177.5t180 70.5zM297 90q60 0 98 42t38 104q0 61 -38 102t-98 41q-61 0 -99 -41t-38 -102q0 -62 38.5 -104t98.5 -42z" />
    <glyph glyph-name="divide" unicode="&#xf7;" horiz-adv-x="685" 
d="M342 456q-28 0 -48 19t-20 47t20 47t48 19q29 0 49.5 -19t20.5 -47t-20.5 -47t-49.5 -19zM104 383h477v-106h-477v106zM342 77q-28 0 -48 19t-20 47t20 47t48 19q29 0 49.5 -19t20.5 -47t-20.5 -47t-49.5 -19z" />
    <glyph glyph-name="oslash" unicode="&#xf8;" horiz-adv-x="593" 
d="M512 435l-26 -31q62 -70 62 -168q0 -108 -72 -179.5t-179 -71.5q-72 0 -132 35l-28 -33l-61 50l28 33q-59 70 -59 166q0 107 72 177.5t180 70.5q71 0 127 -32l27 33zM160 236q0 -41 19 -76l174 208q-27 11 -56 11q-61 0 -99 -41t-38 -102zM297 90q60 0 98 42t38 104
q0 43 -21 79l-177 -211q28 -14 62 -14z" />
    <glyph glyph-name="ugrave" unicode="&#xf9;" horiz-adv-x="595" 
d="M256 554l-98 149h128l75 -149h-105zM527 473v-473h-115v40q-64 -55 -147 -55q-93 0 -150 62t-57 165v261h115v-254q0 -61 31 -95t85 -34q67 0 123 70v313h115z" />
    <glyph glyph-name="uacute" unicode="&#xfa;" horiz-adv-x="595" 
d="M346 554h-105l75 149h128zM527 473v-473h-115v40q-64 -55 -147 -55q-93 0 -150 62t-57 165v261h115v-254q0 -61 31 -95t85 -34q67 0 123 70v313h115z" />
    <glyph glyph-name="ucircumflex" unicode="&#xfb;" horiz-adv-x="595" 
d="M230 545h-108l119 152h110l120 -152h-109l-65 79zM527 473v-473h-115v40q-64 -55 -147 -55q-93 0 -150 62t-57 165v261h115v-254q0 -61 31 -95t85 -34q67 0 123 70v313h115z" />
    <glyph glyph-name="udieresis" unicode="&#xfc;" horiz-adv-x="595" 
d="M193 556q-30 0 -51.5 20t-21.5 50t21.5 50t51.5 20q31 0 52 -20t21 -50t-21 -50t-52 -20zM401 556q-30 0 -51.5 20t-21.5 50t21.5 50t51.5 20q31 0 52 -20t21 -50t-21 -50t-52 -20zM527 473v-473h-115v40q-64 -55 -147 -55q-93 0 -150 62t-57 165v261h115v-254
q0 -61 31 -95t85 -34q67 0 123 70v313h115z" />
    <glyph glyph-name="yacute" unicode="&#xfd;" horiz-adv-x="623" 
d="M360 554h-105l75 149h128zM594 474l-309 -710h-122l96 220l-235 490h124l170 -354l154 354h122z" />
    <glyph glyph-name="thorn" unicode="&#xfe;" horiz-adv-x="604" 
d="M328 484q99 0 168.5 -72.5t69.5 -175.5t-69.5 -175t-168.5 -72q-84 0 -144 44v-270h-116v917h116v-240q60 44 144 44zM311 89q60 0 100 43.5t40 103.5q0 61 -40 104.5t-100 43.5q-82 0 -127 -66v-163q45 -66 127 -66z" />
    <glyph glyph-name="ydieresis" unicode="&#xff;" horiz-adv-x="623" 
d="M207 556q-30 0 -51.5 20t-21.5 50t21.5 50t51.5 20q31 0 52 -20t21 -50t-21 -50t-52 -20zM415 556q-30 0 -51.5 20t-21.5 50t21.5 50t51.5 20q31 0 52 -20t21 -50t-21 -50t-52 -20zM594 474l-309 -710h-122l96 220l-235 490h124l170 -354l154 354h122z" />
    <glyph glyph-name="Amacron" unicode="&#x100;" horiz-adv-x="750" 
d="M515 759h-280v95h280v-95zM538 151h-325l-63 -151h-129l299 684h112l297 -684h-127zM492 262l-116 276l-116 -276h232z" />
    <glyph glyph-name="amacron" unicode="&#x101;" horiz-adv-x="611" 
d="M454 668v-95h-280v95h280zM428 473h115v-473h-115v33q-61 -44 -145 -44q-99 0 -168.5 72t-69.5 175t69.5 175.5t168.5 72.5q84 0 145 -44v33zM300 89q83 0 128 67v161q-45 67 -128 67q-60 0 -100 -44t-40 -104t40 -103.5t100 -43.5z" />
    <glyph glyph-name="Abreve" unicode="&#x102;" horiz-adv-x="750" 
d="M375 757q-69 0 -112 40t-43 114h84q0 -40 20 -58.5t51 -18.5t51 18.5t20 58.5h84q0 -74 -43 -114t-112 -40zM538 151h-325l-63 -151h-129l299 684h112l297 -684h-127zM492 262l-116 276l-116 -276h232z" />
    <glyph glyph-name="abreve" unicode="&#x103;" horiz-adv-x="611" 
d="M314 540q-69 0 -112 40t-43 114h84q0 -40 20 -58.5t51 -18.5t51 18.5t20 58.5h84q0 -74 -43 -114t-112 -40zM428 473h115v-473h-115v33q-61 -44 -145 -44q-99 0 -168.5 72t-69.5 175t69.5 175.5t168.5 72.5q84 0 145 -44v33zM300 89q83 0 128 67v161q-45 67 -128 67
q-60 0 -100 -44t-40 -104t40 -103.5t100 -43.5z" />
    <glyph glyph-name="Aogonek" unicode="&#x104;" horiz-adv-x="750" 
d="M731 -75l11 -85q-26 -11 -67 -11q-64 0 -103 31t-39 82q0 53 57 86l-52 123h-325l-63 -151h-129l299 684h112l297 -684h-50q-50 -13 -50 -45q0 -35 61 -35q14 0 41 5zM492 262l-116 276l-116 -276h232z" />
    <glyph glyph-name="aogonek" unicode="&#x105;" horiz-adv-x="611" 
d="M576 -79l11 -85q-26 -11 -67 -11q-64 0 -103 31t-39 82q0 50 50 81v14q-61 -44 -145 -44q-99 0 -168.5 72t-69.5 175t69.5 175.5t168.5 72.5q84 0 145 -44v33h115v-473q-69 -12 -69 -49q0 -35 61 -35q14 0 41 5zM300 89q83 0 128 67v161q-45 67 -128 67q-60 0 -100 -44
t-40 -104t40 -103.5t100 -43.5z" />
    <glyph glyph-name="Cacute" unicode="&#x106;" horiz-adv-x="797" 
d="M460 755h-105l75 149h128zM410 101q80 0 133.5 42.5t73.5 120.5h124q-24 -127 -113.5 -202.5t-217.5 -75.5q-149 0 -251.5 101t-102.5 253t102.5 253t251.5 101q128 0 217.5 -75.5t113.5 -202.5h-124q-20 78 -73.5 120.5t-133.5 42.5q-100 0 -166 -67t-66 -172t66 -172
t166 -67z" />
    <glyph glyph-name="cacute" unicode="&#x107;" horiz-adv-x="573" 
d="M338 554h-105l75 149h128zM296 93q44 0 75 23t39 61h118q-11 -83 -76 -135.5t-156 -52.5q-107 0 -179 71t-72 176q0 106 72 177t179 71q90 0 155.5 -52.5t76.5 -135.5h-118q-8 38 -39 60.5t-75 22.5q-60 0 -98 -41t-38 -102t38 -102t98 -41z" />
    <glyph glyph-name="Cdotaccent" unicode="&#x10a;" horiz-adv-x="797" 
d="M410 754q-31 0 -52 20t-21 50t21 50t52 20t52 -20t21 -50t-21 -50t-52 -20zM410 101q80 0 133.5 42.5t73.5 120.5h124q-24 -127 -113.5 -202.5t-217.5 -75.5q-149 0 -251.5 101t-102.5 253t102.5 253t251.5 101q128 0 217.5 -75.5t113.5 -202.5h-124q-20 78 -73.5 120.5
t-133.5 42.5q-100 0 -166 -67t-66 -172t66 -172t166 -67z" />
    <glyph glyph-name="cdotaccent" unicode="&#x10b;" horiz-adv-x="573" 
d="M289 556q-31 0 -52 20t-21 50t21 50t52 20t52 -20t21 -50t-21 -50t-52 -20zM296 93q44 0 75 23t39 61h118q-11 -83 -76 -135.5t-156 -52.5q-107 0 -179 71t-72 176q0 106 72 177t179 71q90 0 155.5 -52.5t76.5 -135.5h-118q-8 38 -39 60.5t-75 22.5q-60 0 -98 -41
t-38 -102t38 -102t98 -41z" />
    <glyph glyph-name="Ccaron" unicode="&#x10c;" horiz-adv-x="797" 
d="M354 747l-119 152h108l67 -79l65 79h109l-120 -152h-110zM410 101q80 0 133.5 42.5t73.5 120.5h124q-24 -127 -113.5 -202.5t-217.5 -75.5q-149 0 -251.5 101t-102.5 253t102.5 253t251.5 101q128 0 217.5 -75.5t113.5 -202.5h-124q-20 78 -73.5 120.5t-133.5 42.5
q-100 0 -166 -67t-66 -172t66 -172t166 -67z" />
    <glyph glyph-name="ccaron" unicode="&#x10d;" horiz-adv-x="573" 
d="M233 545l-119 152h108l67 -79l65 79h109l-120 -152h-110zM296 93q44 0 75 23t39 61h118q-11 -83 -76 -135.5t-156 -52.5q-107 0 -179 71t-72 176q0 106 72 177t179 71q90 0 155.5 -52.5t76.5 -135.5h-118q-8 38 -39 60.5t-75 22.5q-60 0 -98 -41t-38 -102t38 -102t98 -41
z" />
    <glyph glyph-name="Dcaron" unicode="&#x10e;" horiz-adv-x="741" 
d="M285 747l-119 152h108l67 -79l65 79h109l-120 -152h-110zM76 680h255q157 0 260 -95.5t103 -241.5q0 -148 -103 -245.5t-260 -97.5h-255v680zM196 111h135q102 0 171 67t69 165q0 96 -69 161t-171 65h-135v-458z" />
    <glyph glyph-name="dcaron" unicode="&#x10f;" horiz-adv-x="611" 
d="M428 710h115v-710h-115v34q-61 -45 -145 -45q-99 0 -168.5 72.5t-69.5 175.5t69.5 175t168.5 72q84 0 145 -44v270zM731 710l-36 -199h-88l7 199h117zM300 89q83 0 128 67v162q-45 66 -128 66q-60 0 -100 -43.5t-40 -103.5t40 -104t100 -44z" />
    <glyph glyph-name="Dcroat" unicode="&#x110;" horiz-adv-x="741" 
d="M76 680h255q157 0 260 -95.5t103 -241.5q0 -148 -103 -245.5t-260 -97.5h-255v278h-64v111h64v291zM196 111h135q102 0 171 67t69 165q0 96 -69 161t-171 65h-135v-180h136v-111h-136v-167z" />
    <glyph glyph-name="dcroat" unicode="&#x111;" horiz-adv-x="611" 
d="M577 552h-34v-552h-115v34q-61 -45 -145 -45q-99 0 -168.5 72.5t-69.5 175.5t69.5 175t168.5 72q84 0 145 -44v112h-167v95h167v63h115v-63h34v-95zM300 89q83 0 128 67v162q-45 66 -128 66q-60 0 -100 -43.5t-40 -103.5t40 -104t100 -44z" />
    <glyph glyph-name="Emacron" unicode="&#x112;" horiz-adv-x="617" 
d="M460 759h-280v95h280v-95zM196 569v-178h334v-111h-334v-169h374v-111h-494v680h494v-111h-374z" />
    <glyph glyph-name="emacron" unicode="&#x113;" horiz-adv-x="572" 
d="M433 668v-95h-280v95h280zM527 244q0 -20 -3 -38h-1h-366q8 -53 44 -86t98 -33q70 0 96 44h123q-20 -66 -80.5 -106t-141.5 -40q-111 0 -181.5 72t-70.5 179q0 110 69.5 181t179.5 71q101 0 167 -67.5t67 -176.5zM293 390q-55 0 -89.5 -31t-44.5 -82h251q-6 53 -36.5 83
t-80.5 30z" />
    <glyph glyph-name="Edotaccent" unicode="&#x116;" horiz-adv-x="617" 
d="M320 754q-31 0 -52 20t-21 50t21 50t52 20t52 -20t21 -50t-21 -50t-52 -20zM196 569v-178h334v-111h-334v-169h374v-111h-494v680h494v-111h-374z" />
    <glyph glyph-name="edotaccent" unicode="&#x117;" horiz-adv-x="572" 
d="M293 556q-31 0 -52 20t-21 50t21 50t52 20t52 -20t21 -50t-21 -50t-52 -20zM527 244q0 -20 -3 -38h-1h-366q8 -53 44 -86t98 -33q70 0 96 44h123q-20 -66 -80.5 -106t-141.5 -40q-111 0 -181.5 72t-70.5 179q0 110 69.5 181t179.5 71q101 0 167 -67.5t67 -176.5zM293 390
q-55 0 -89.5 -31t-44.5 -82h251q-6 53 -36.5 83t-80.5 30z" />
    <glyph glyph-name="Eogonek" unicode="&#x118;" horiz-adv-x="617" 
d="M602 -79l11 -85q-26 -11 -67 -11q-64 0 -103 31t-39 82q0 34 26 62h-354v680h494v-111h-374v-178h334v-111h-334v-169h374v-111h-1q-69 -12 -69 -49q0 -35 61 -35q14 0 41 5z" />
    <glyph glyph-name="eogonek" unicode="&#x119;" horiz-adv-x="572" 
d="M527 244q0 -20 -3 -38h-1h-366q8 -53 44 -86t98 -33q70 0 96 44h123q-21 -67 -82 -106q-36 -33 -36 -68q0 -44 61 -44q17 0 41 6l11 -86q-24 -10 -67 -10q-64 0 -103 30.5t-39 82.5q0 26 12 50l-20 -1q-111 0 -181.5 72t-70.5 179q0 110 69.5 181t179.5 71
q101 0 167 -67.5t67 -176.5zM293 390q-55 0 -89.5 -31t-44.5 -82h251q-6 53 -36.5 83t-80.5 30z" />
    <glyph glyph-name="Ecaron" unicode="&#x11a;" horiz-adv-x="617" 
d="M264 747l-119 152h108l67 -79l65 79h109l-120 -152h-110zM196 569v-178h334v-111h-334v-169h374v-111h-494v680h494v-111h-374z" />
    <glyph glyph-name="ecaron" unicode="&#x11b;" horiz-adv-x="572" 
d="M347 545h-110l-119 152h108l67 -79l65 79h109zM527 244q0 -20 -3 -38h-1h-366q8 -53 44 -86t98 -33q70 0 96 44h123q-20 -66 -80.5 -106t-141.5 -40q-111 0 -181.5 72t-70.5 179q0 110 69.5 181t179.5 71q101 0 167 -67.5t67 -176.5zM293 390q-55 0 -89.5 -31t-44.5 -82
h251q-6 53 -36.5 83t-80.5 30z" />
    <glyph glyph-name="Gbreve" unicode="&#x11e;" horiz-adv-x="820" 
d="M411 757q-69 0 -112 40t-43 114h84q0 -40 20 -58.5t51 -18.5t51 18.5t20 58.5h84q0 -74 -43 -114t-112 -40zM750 340v-340h-94l-8 108q-78 -122 -239 -122q-151 0 -252 101.5t-101 243.5q0 158 103.5 260.5t254.5 102.5q116 0 208 -64t121 -184h-128q-25 71 -80.5 102
t-118.5 31q-104 0 -171 -68t-67 -180q0 -95 64.5 -162t166.5 -67q81 0 135 43.5t74 116.5h-218v111h350v-33z" />
    <glyph glyph-name="gbreve" unicode="&#x11f;" horiz-adv-x="616" 
d="M316 540q-69 0 -112 40t-43 114h84q0 -40 20 -58.5t51 -18.5t51 18.5t20 58.5h84q0 -74 -43 -114t-112 -40zM431 473h115v-473q0 -109 -66.5 -172.5t-173.5 -63.5q-100 0 -168 55t-76 141h117q6 -41 40 -66t87 -25q56 0 90.5 34.5t34.5 96.5v56q-61 -44 -146 -44
q-98 0 -167.5 69.5t-69.5 164.5q0 105 68.5 173.5t168.5 68.5q85 0 146 -44v29zM302 111q83 0 129 68v142q-45 67 -129 67q-61 0 -100 -40t-39 -102q0 -52 40 -93.5t99 -41.5z" />
    <glyph glyph-name="Gdotaccent" unicode="&#x120;" horiz-adv-x="820" 
d="M411 754q-31 0 -52 20t-21 50t21 50t52 20t52 -20t21 -50t-21 -50t-52 -20zM750 340v-340h-94l-8 108q-78 -122 -239 -122q-151 0 -252 101.5t-101 243.5q0 158 103.5 260.5t254.5 102.5q116 0 208 -64t121 -184h-128q-25 71 -80.5 102t-118.5 31q-104 0 -171 -68
t-67 -180q0 -95 64.5 -162t166.5 -67q81 0 135 43.5t74 116.5h-218v111h350v-33z" />
    <glyph glyph-name="gdotaccent" unicode="&#x121;" horiz-adv-x="616" 
d="M316 556q-31 0 -52 20t-21 50t21 50t52 20t52 -20t21 -50t-21 -50t-52 -20zM431 473h115v-473q0 -109 -66.5 -172.5t-173.5 -63.5q-100 0 -168 55t-76 141h117q6 -41 40 -66t87 -25q56 0 90.5 34.5t34.5 96.5v56q-61 -44 -146 -44q-98 0 -167.5 69.5t-69.5 164.5
q0 105 68.5 173.5t168.5 68.5q85 0 146 -44v29zM302 111q83 0 129 68v142q-45 67 -129 67q-61 0 -100 -40t-39 -102q0 -52 40 -93.5t99 -41.5z" />
    <glyph glyph-name="Gcommaaccent" unicode="&#x122;" horiz-adv-x="820" 
d="M750 340v-340h-94l-8 108q-78 -122 -239 -122q-151 0 -252 101.5t-101 243.5q0 158 103.5 260.5t254.5 102.5q116 0 208 -64t121 -184h-128q-25 71 -80.5 102t-118.5 31q-104 0 -171 -68t-67 -180q0 -95 64.5 -162t166.5 -67q81 0 135 43.5t74 116.5h-218v111h350v-33z
M409 -50q27 0 47 -18.5t20 -44.5q0 -17 -7 -32t-40 -72l-18 -31h-65l37 80q-41 15 -41 55q0 26 19.5 44.5t47.5 18.5z" />
    <glyph glyph-name="gcommaaccent" unicode="&#x123;" horiz-adv-x="616" 
d="M308 556q-28 0 -47.5 18.5t-19.5 44.5q0 19 9 36.5t56 98.5h64l-37 -80q42 -15 42 -55q0 -26 -20 -44.5t-47 -18.5zM431 473h115v-473q0 -109 -66.5 -172.5t-173.5 -63.5q-100 0 -168 55t-76 141h117q6 -41 40 -66t87 -25q56 0 90.5 34.5t34.5 96.5v56q-61 -44 -146 -44
q-98 0 -167.5 69.5t-69.5 164.5q0 105 68.5 173.5t168.5 68.5q85 0 146 -44v29zM302 111q83 0 129 68v142q-45 67 -129 67q-61 0 -100 -40t-39 -102q0 -52 40 -93.5t99 -41.5z" />
    <glyph glyph-name="Hbar" unicode="&#x126;" horiz-adv-x="731" 
d="M698 484h-44v-484h-119v278h-339v-278h-120v484h-53v99h53v97h120v-97h339v97h119v-97h44v-99zM535 484h-339v-95h339v95z" />
    <glyph glyph-name="hbar" unicode="&#x127;" horiz-adv-x="594" 
d="M330 488q93 0 150 -62t57 -165v-261h-115v254q0 62 -31 95.5t-85 33.5q-66 0 -122 -68v-315h-116v579h-39v82h39v49h116v-49h143v-82h-143v-145q65 54 146 54z" />
    <glyph glyph-name="Imacron" unicode="&#x12a;" horiz-adv-x="273" 
d="M276 854v-95h-280v95h280zM196 680v-680h-120v680h120z" />
    <glyph glyph-name="imacron" unicode="&#x12b;" horiz-adv-x="266" 
d="M273 668v-95h-280v95h280zM191 473v-473h-115v473h115z" />
    <glyph glyph-name="Iogonek" unicode="&#x12e;" horiz-adv-x="273" 
d="M229 -79l11 -85q-26 -11 -67 -11q-64 0 -103 31t-39 82q0 45 45 78v664h120v-680q-69 -12 -69 -49q0 -35 61 -35q14 0 41 5z" />
    <glyph glyph-name="iogonek" unicode="&#x12f;" horiz-adv-x="266" 
d="M133 575q-30 0 -51 20t-21 49q0 30 21 50.5t51 20.5t51 -20.5t21 -50.5q0 -29 -21 -49t-51 -20zM224 -79l11 -85q-26 -11 -67 -11q-64 0 -103 31t-39 82q0 50 50 81v454h115v-473q-69 -12 -69 -49q0 -35 61 -35q14 0 41 5z" />
    <glyph glyph-name="Idotaccent" unicode="&#x130;" horiz-adv-x="273" 
d="M136 757q-32 0 -54 21.5t-22 52.5t22 52t54 21t54 -21t22 -52t-22 -52.5t-54 -21.5zM196 680v-680h-120v680h120z" />
    <glyph glyph-name="dotlessi" unicode="&#x131;" horiz-adv-x="266" 
d="M191 473v-473h-115v473h115z" />
    <glyph glyph-name="IJ" unicode="&#x132;" horiz-adv-x="869" 
d="M196 680v-680h-120v680h120zM802 680v-427q0 -128 -70.5 -198t-192.5 -70q-107 0 -176.5 62t-76.5 170h121q4 -58 42.5 -89t97.5 -31t96.5 42.5t37.5 117.5v423h121z" />
    <glyph glyph-name="ij" unicode="&#x133;" horiz-adv-x="526" 
d="M133 575q-30 0 -51 20t-21 49q0 30 21 50.5t51 20.5t51 -20.5t21 -50.5q0 -29 -21 -49t-51 -20zM393 575q-30 0 -51 20t-21 49q0 30 21 50.5t51 20.5t51 -20.5t21 -50.5q0 -29 -21 -49t-51 -20zM76 473h115v-473h-115v473zM451 473v-445q0 -110 -44.5 -162t-160.5 -54
l-9 101q57 4 78 25t21 75v460h115z" />
    <glyph glyph-name="Kcommaaccent" unicode="&#x136;" horiz-adv-x="710" 
d="M696 0h-150l-234 288l-116 -129v-159h-120v680h120v-357l326 357h144l-273 -302zM353 -50q27 0 47 -18.5t20 -44.5q0 -17 -7 -32t-40 -72l-18 -31h-65l37 80q-41 15 -41 55q0 26 19.5 44.5t47.5 18.5z" />
    <glyph glyph-name="kcommaaccent" unicode="&#x137;" horiz-adv-x="575" 
d="M567 0h-150l-147 194l-85 -88v-106h-115v710h115v-452l208 215h147l-190 -196zM289 -50q27 0 47 -18.5t20 -44.5q0 -17 -7 -32t-40 -72l-18 -31h-65l37 80q-41 15 -41 55q0 26 19.5 44.5t47.5 18.5z" />
    <glyph glyph-name="Lacute" unicode="&#x139;" horiz-adv-x="579" 
d="M184 755h-105l75 149h128zM554 108v-108h-478v680h120v-572h358z" />
    <glyph glyph-name="lacute" unicode="&#x13a;" horiz-adv-x="252" 
d="M276 940l-98 -149h-105l75 149h128zM184 710v-710h-116v710h116z" />
    <glyph glyph-name="Lcommaaccent" unicode="&#x13b;" horiz-adv-x="579" 
d="M554 108v-108h-478v680h120v-572h358zM328 -50q27 0 47 -18.5t20 -44.5q0 -17 -7 -32t-40 -72l-18 -31h-65l37 80q-41 15 -41 55q0 26 19.5 44.5t47.5 18.5z" />
    <glyph glyph-name="lcommaaccent" unicode="&#x13c;" horiz-adv-x="252" 
d="M184 710v-710h-116v710h116zM60 -248l37 80q-41 15 -41 55q0 26 19.5 44.5t47.5 18.5q27 0 47 -18.5t20 -44.5q0 -17 -7 -32t-40 -72l-18 -31h-65z" />
    <glyph glyph-name="Lcaron" unicode="&#x13d;" horiz-adv-x="579" 
d="M554 108v-108h-478v680h120v-572h358zM409 481h-88l7 199h117z" />
    <glyph glyph-name="lcaron" unicode="&#x13e;" horiz-adv-x="255" 
d="M184 710v-710h-116v710h116zM350 710l-36 -199h-88l7 199h117z" />
    <glyph glyph-name="Ldot" unicode="&#x13f;" horiz-adv-x="579" 
d="M554 108v-108h-478v680h120v-572h358zM389 272q-30 0 -51.5 20t-21.5 50t21.5 50.5t51.5 20.5q31 0 52 -20.5t21 -50.5t-21 -50t-52 -20z" />
    <glyph glyph-name="ldot" unicode="&#x140;" horiz-adv-x="398" 
d="M184 710v-710h-116v710h116zM284 259q-31 0 -52 20t-21 50t21 50t52 20q30 0 51.5 -20t21.5 -50t-21.5 -50t-51.5 -20z" />
    <glyph glyph-name="Lslash" unicode="&#x141;" horiz-adv-x="579" 
d="M554 108v-108h-478v242l-63 -26v100l63 26v338h120v-288l161 67v-101l-161 -66v-184h358z" />
    <glyph glyph-name="lslash" unicode="&#x142;" horiz-adv-x="252" 
d="M249 365l-65 -28v-337h-116v287l-65 -28v118l65 28v305h116v-256l65 28v-117z" />
    <glyph glyph-name="Nacute" unicode="&#x143;" horiz-adv-x="754" 
d="M427 755h-105l75 149h128zM677 680v-680h-94l-387 458v-458h-120v680h91l391 -469v469h119z" />
    <glyph glyph-name="nacute" unicode="&#x144;" horiz-adv-x="595" 
d="M349 554h-105l75 149h128zM330 488q93 0 150 -62t57 -165v-261h-115v254q0 62 -31 95.5t-85 33.5q-66 0 -122 -68v-315h-116v473h116v-39q65 54 146 54z" />
    <glyph glyph-name="Ncommaaccent" unicode="&#x145;" horiz-adv-x="754" 
d="M677 680v-680h-94l-387 458v-458h-120v680h91l391 -469v469h119zM373 -50q27 0 47 -18.5t20 -44.5q0 -17 -7 -32t-40 -72l-18 -31h-65l37 80q-41 15 -41 55q0 26 19.5 44.5t47.5 18.5z" />
    <glyph glyph-name="ncommaaccent" unicode="&#x146;" horiz-adv-x="595" 
d="M330 488q93 0 150 -62t57 -165v-261h-115v254q0 62 -31 95.5t-85 33.5q-66 0 -122 -68v-315h-116v473h116v-39q65 54 146 54zM301 -50q27 0 47 -18.5t20 -44.5q0 -17 -7 -32t-40 -72l-18 -31h-65l37 80q-41 15 -41 55q0 26 19.5 44.5t47.5 18.5z" />
    <glyph glyph-name="Ncaron" unicode="&#x147;" horiz-adv-x="754" 
d="M321 747l-119 152h108l67 -79l65 79h109l-120 -152h-110zM677 680v-680h-94l-387 458v-458h-120v680h91l391 -469v469h119z" />
    <glyph glyph-name="ncaron" unicode="&#x148;" horiz-adv-x="595" 
d="M244 545l-119 152h108l67 -79l65 79h109l-120 -152h-110zM330 488q93 0 150 -62t57 -165v-261h-115v254q0 62 -31 95.5t-85 33.5q-66 0 -122 -68v-315h-116v473h116v-39q65 54 146 54z" />
    <glyph glyph-name="Omacron" unicode="&#x14c;" horiz-adv-x="820" 
d="M550 854v-95h-280v95h280zM410 694q147 0 250.5 -103.5t103.5 -250.5t-103.5 -250.5t-250.5 -103.5t-250.5 103.5t-103.5 250.5t103.5 250.5t250.5 103.5zM410 98q99 0 166 70.5t67 171.5t-67 171.5t-166 70.5q-98 0 -165 -70.5t-67 -171.5t67 -171.5t165 -70.5z" />
    <glyph glyph-name="omacron" unicode="&#x14d;" horiz-adv-x="593" 
d="M157 668h280v-95h-280v95zM297 484q108 0 179.5 -70.5t71.5 -177.5q0 -108 -72 -179.5t-179 -71.5q-108 0 -180 71.5t-72 179.5q0 107 72 177.5t180 70.5zM297 90q60 0 98 42t38 104q0 61 -38 102t-98 41q-61 0 -99 -41t-38 -102q0 -62 38.5 -104t98.5 -42z" />
    <glyph glyph-name="Ohungarumlaut" unicode="&#x150;" horiz-adv-x="820" 
d="M461 904l-81 -149h-96l58 149h119zM607 904l-81 -149h-96l58 149h119zM410 694q147 0 250.5 -103.5t103.5 -250.5t-103.5 -250.5t-250.5 -103.5t-250.5 103.5t-103.5 250.5t103.5 250.5t250.5 103.5zM410 98q99 0 166 70.5t67 171.5t-67 171.5t-166 70.5
q-98 0 -165 -70.5t-67 -171.5t67 -171.5t165 -70.5z" />
    <glyph glyph-name="ohungarumlaut" unicode="&#x151;" horiz-adv-x="593" 
d="M229 703h119l-81 -149h-96zM375 703h119l-81 -149h-96zM297 484q108 0 179.5 -70.5t71.5 -177.5q0 -108 -72 -179.5t-179 -71.5q-108 0 -180 71.5t-72 179.5q0 107 72 177.5t180 70.5zM297 90q60 0 98 42t38 104q0 61 -38 102t-98 41q-61 0 -99 -41t-38 -102
q0 -62 38.5 -104t98.5 -42z" />
    <glyph glyph-name="OE" unicode="&#x152;" horiz-adv-x="990" 
d="M569 569v-178h333v-111h-333v-169h373v-111h-536q-163 0 -269.5 96.5t-106.5 243.5t106.5 243.5t269.5 96.5h536v-111h-373zM449 112v456h-43q-114 0 -184 -63.5t-70 -164.5t70 -164.5t184 -63.5h43z" />
    <glyph glyph-name="oe" unicode="&#x153;" horiz-adv-x="960" 
d="M915 244q0 -20 -3 -38h-1l-365 -1q9 -53 44.5 -85.5t96.5 -32.5q70 0 96 44h124q-20 -66 -81 -106t-142 -40q-123 0 -194 87q-73 -87 -193 -87q-108 0 -180 71.5t-72 179.5q0 107 72 177.5t180 70.5q119 0 191 -83q71 87 193 87q102 0 168 -67.5t66 -176.5zM681 390
q-55 0 -89 -31t-44 -82h251q-6 53 -37 83t-81 30zM297 90q60 0 98 42t38 104q0 61 -38 102t-98 41q-61 0 -99 -41t-38 -102q0 -62 38.5 -104t98.5 -42z" />
    <glyph glyph-name="Racute" unicode="&#x154;" horiz-adv-x="684" 
d="M356 755h-105l75 149h128zM346 224h-150v-224h-120v680h279q116 0 190 -63t74 -165q0 -73 -38.5 -127t-105.5 -80l185 -245h-146zM196 335h155q65 0 107.5 32t42.5 85t-42.5 85t-107.5 32h-155v-234z" />
    <glyph glyph-name="racute" unicode="&#x155;" horiz-adv-x="385" 
d="M259 554h-105l75 149h128zM184 473v-60q67 69 172 69v-109q-111 -4 -172 -79v-294h-116v473h116z" />
    <glyph glyph-name="Rcommaaccent" unicode="&#x156;" horiz-adv-x="684" 
d="M660 0h-146l-168 224h-150v-224h-120v680h279q116 0 190 -63t74 -165q0 -73 -38.5 -127t-105.5 -80zM196 335h155q65 0 107.5 32t42.5 85t-42.5 85t-107.5 32h-155v-234zM339 -50q27 0 47 -18.5t20 -44.5q0 -17 -7 -32t-40 -72l-18 -31h-65l37 80q-41 15 -41 55
q0 26 19.5 44.5t47.5 18.5z" />
    <glyph glyph-name="rcommaaccent" unicode="&#x157;" horiz-adv-x="385" 
d="M184 473v-60q67 69 172 69v-109q-111 -4 -172 -79v-294h-116v473h116zM122 -50q27 0 47 -18.5t20 -44.5q0 -17 -7 -32t-40 -72l-18 -31h-65l37 80q-41 15 -41 55q0 26 19.5 44.5t47.5 18.5z" />
    <glyph glyph-name="Rcaron" unicode="&#x158;" horiz-adv-x="684" 
d="M251 747l-119 152h108l67 -79l65 79h109l-120 -152h-110zM346 224h-150v-224h-120v680h279q116 0 190 -63t74 -165q0 -73 -38.5 -127t-105.5 -80l185 -245h-146zM196 335h155q65 0 107.5 32t42.5 85t-42.5 85t-107.5 32h-155v-234z" />
    <glyph glyph-name="rcaron" unicode="&#x159;" horiz-adv-x="385" 
d="M154 545l-119 152h108l67 -79l65 79h109l-120 -152h-110zM184 473v-60q67 69 172 69v-109q-111 -4 -172 -79v-294h-116v473h116z" />
    <glyph glyph-name="Sacute" unicode="&#x15a;" horiz-adv-x="668" 
d="M353 904h128l-98 -149h-105zM334 695q48 0 92 -11t84.5 -35t67 -67.5t32.5 -102.5h-119q-18 113 -149 113q-62 0 -98.5 -26.5t-36.5 -72.5q0 -38 27 -59t83 -32l86 -17q102 -20 153 -64t51 -123q0 -95 -72.5 -153.5t-190.5 -58.5q-126 0 -204.5 63.5t-87.5 172.5h119
q9 -60 56.5 -95t123.5 -35q62 0 97.5 24.5t35.5 67.5q0 67 -100 84l-112 22q-192 36 -192 193q0 95 69.5 153.5t184.5 58.5z" />
    <glyph glyph-name="sacute" unicode="&#x15b;" horiz-adv-x="510" 
d="M402 703l-98 -149h-105l75 149h128zM36 160l106 -1q14 -80 116 -80q42 0 68.5 14t26.5 38q0 39 -57 50l-103 17q-140 25 -140 136q0 70 54.5 111t144.5 41q34 0 66 -7t64 -23t53.5 -48.5t25.5 -78.5l-107 -1q-3 34 -31 51.5t-71 17.5q-40 0 -62.5 -14.5t-22.5 -36.5
q0 -42 67 -54l88 -14q141 -25 141 -137q0 -74 -58 -115t-150 -41q-90 0 -150.5 42t-68.5 133z" />
    <glyph glyph-name="Scedilla" unicode="&#x15e;" horiz-adv-x="668" 
d="M334 695q48 0 92 -11t84.5 -35t67 -67.5t32.5 -102.5h-119q-18 113 -149 113q-62 0 -98.5 -26.5t-36.5 -72.5q0 -38 27 -59t83 -32l86 -17q102 -20 153 -64t51 -123q0 -95 -72.5 -153.5t-190.5 -58.5q-126 0 -204.5 63.5t-87.5 172.5h119q9 -60 56.5 -95t123.5 -35
q62 0 97.5 24.5t35.5 67.5q0 67 -100 84l-112 22q-192 36 -192 193q0 95 69.5 153.5t184.5 58.5zM409 -55l-59 -156h-99l44 156h114z" />
    <glyph glyph-name="scedilla" unicode="&#x15f;" horiz-adv-x="510" 
d="M36 160l106 -1q14 -80 116 -80q42 0 68.5 14t26.5 38q0 39 -57 50l-103 17q-140 25 -140 136q0 70 54.5 111t144.5 41q34 0 66 -7t64 -23t53.5 -48.5t25.5 -78.5l-107 -1q-3 34 -31 51.5t-71 17.5q-40 0 -62.5 -14.5t-22.5 -36.5q0 -42 67 -54l88 -14q141 -25 141 -137
q0 -74 -58 -115t-150 -41q-90 0 -150.5 42t-68.5 133zM258 -211h-99l44 156h114z" />
    <glyph glyph-name="Scaron" unicode="&#x160;" horiz-adv-x="668" 
d="M399 899h109l-120 -152h-110l-119 152h108l67 -79zM334 695q48 0 92 -11t84.5 -35t67 -67.5t32.5 -102.5h-119q-18 113 -149 113q-62 0 -98.5 -26.5t-36.5 -72.5q0 -38 27 -59t83 -32l86 -17q102 -20 153 -64t51 -123q0 -95 -72.5 -153.5t-190.5 -58.5
q-126 0 -204.5 63.5t-87.5 172.5h119q9 -60 56.5 -95t123.5 -35q62 0 97.5 24.5t35.5 67.5q0 67 -100 84l-112 22q-192 36 -192 193q0 95 69.5 153.5t184.5 58.5z" />
    <glyph glyph-name="scaron" unicode="&#x161;" horiz-adv-x="510" 
d="M429 697l-120 -152h-110l-119 152h108l67 -79l65 79h109zM36 160l106 -1q14 -80 116 -80q42 0 68.5 14t26.5 38q0 39 -57 50l-103 17q-140 25 -140 136q0 70 54.5 111t144.5 41q34 0 66 -7t64 -23t53.5 -48.5t25.5 -78.5l-107 -1q-3 34 -31 51.5t-71 17.5
q-40 0 -62.5 -14.5t-22.5 -36.5q0 -42 67 -54l88 -14q141 -25 141 -137q0 -74 -58 -115t-150 -41q-90 0 -150.5 42t-68.5 133z" />
    <glyph glyph-name="Tcedilla" unicode="&#x162;" horiz-adv-x="648" 
d="M620 569h-236v-569h-120v569h-237v111h593v-111zM270 -55h114l-58 -156h-100z" />
    <glyph glyph-name="tcedilla" unicode="&#x163;" horiz-adv-x="446" 
d="M398 104l16 -99q-66 -20 -118 -20q-85 0 -134 53t-49 144v194h-108v97h108v173h115v-173h175v-97h-175v-194q0 -90 90 -90q37 0 80 12zM170 -211l44 156h114l-59 -156h-99z" />
    <glyph glyph-name="Tcaron" unicode="&#x164;" horiz-adv-x="648" 
d="M268 747l-119 152h108l67 -79l65 79h109l-120 -152h-110zM620 569h-236v-569h-120v569h-237v111h593v-111z" />
    <glyph glyph-name="tcaron" unicode="&#x165;" horiz-adv-x="446" 
d="M401 712l-36 -199h-88l7 199h117zM398 104l16 -99q-66 -20 -118 -20q-85 0 -134 53t-49 144v194h-108v97h108v173h115v-173h175v-97h-175v-194q0 -90 90 -90q37 0 80 12z" />
    <glyph glyph-name="Umacron" unicode="&#x16a;" horiz-adv-x="734" 
d="M508 854v-95h-280v95h280zM668 680v-378q0 -145 -82.5 -231t-218.5 -86t-218.5 86t-82.5 231v378h120v-378q0 -91 50 -148t131 -57t131 57t50 148v378h120z" />
    <glyph glyph-name="umacron" unicode="&#x16b;" horiz-adv-x="595" 
d="M437 573h-280v95h280v-95zM527 473v-473h-115v40q-64 -55 -147 -55q-93 0 -150 62t-57 165v261h115v-254q0 -61 31 -95t85 -34q67 0 123 70v313h115z" />
    <glyph glyph-name="Uring" unicode="&#x16e;" horiz-adv-x="734" 
d="M367 973q50 0 81 -29t31 -76t-31 -76t-81 -29t-80.5 29t-30.5 76t30.5 76t80.5 29zM367 822q21 0 34 13t13 33t-13 33t-34 13q-20 0 -33 -13t-13 -33t13 -33t33 -13zM668 680v-378q0 -145 -82.5 -231t-218.5 -86t-218.5 86t-82.5 231v378h120v-378q0 -91 50 -148t131 -57
t131 57t50 148v378h120z" />
    <glyph glyph-name="uring" unicode="&#x16f;" horiz-adv-x="595" 
d="M296 542q-50 0 -80.5 29t-30.5 76t30.5 76t80.5 29t81 -29t31 -76t-31 -76t-81 -29zM296 693q-20 0 -33 -13t-13 -33t13 -33t33 -13q21 0 34 13t13 33t-13 33t-34 13zM527 473v-473h-115v40q-64 -55 -147 -55q-93 0 -150 62t-57 165v261h115v-254q0 -61 31 -95t85 -34
q67 0 123 70v313h115z" />
    <glyph glyph-name="Uhungarumlaut" unicode="&#x170;" horiz-adv-x="734" 
d="M419 904l-81 -149h-96l58 149h119zM565 904l-81 -149h-96l58 149h119zM668 680v-378q0 -145 -82.5 -231t-218.5 -86t-218.5 86t-82.5 231v378h120v-378q0 -91 50 -148t131 -57t131 57t50 148v378h120z" />
    <glyph glyph-name="uhungarumlaut" unicode="&#x171;" horiz-adv-x="595" 
d="M267 554h-96l58 149h119zM317 554l58 149h119l-81 -149h-96zM527 473v-473h-115v40q-64 -55 -147 -55q-93 0 -150 62t-57 165v261h115v-254q0 -61 31 -95t85 -34q67 0 123 70v313h115z" />
    <glyph glyph-name="Uogonek" unicode="&#x172;" horiz-adv-x="734" 
d="M668 680v-378q0 -103 -42.5 -177t-118.5 -111q-72 -51 -72 -92q0 -18 14 -30t44 -12q14 0 41 5l11 -96q-24 -8 -67 -8q-64 0 -101.5 31t-37.5 82q0 46 44 91h-16q-136 0 -218.5 86t-82.5 231v378h120v-378q0 -91 50 -148t131 -57t131 57t50 148v378h120z" />
    <glyph glyph-name="uogonek" unicode="&#x173;" horiz-adv-x="595" 
d="M559 -79l11 -85q-26 -11 -67 -11q-64 0 -103 31t-39 82q0 50 51 82v20q-64 -55 -147 -55q-93 0 -150 62t-57 165v261h115v-254q0 -61 31 -95t85 -34q67 0 123 70v313h115v-473h-1q-69 -12 -69 -49q0 -35 61 -35q14 0 41 5z" />
    <glyph glyph-name="Wcircumflex" unicode="&#x174;" horiz-adv-x="1077" 
d="M472 756h-108l119 152h110l120 -152h-109l-65 79zM1044 680l-226 -684h-118l-162 467l-161 -467h-118l-226 684h126l160 -496l169 496h101l169 -496l160 496h126z" />
    <glyph glyph-name="wcircumflex" unicode="&#x175;" horiz-adv-x="792" 
d="M329 545h-108l119 152h110l120 -152h-109l-65 79zM772 473l-177 -473h-101l-98 287l-98 -287h-101l-177 473h125l102 -289l100 289h98l99 -290l103 290h125z" />
    <glyph glyph-name="Ycircumflex" unicode="&#x176;" horiz-adv-x="689" 
d="M278 756h-108l119 152h110l120 -152h-109l-65 79zM678 680l-272 -451v-229h-122v229l-273 451h133l200 -333l201 333h133z" />
    <glyph glyph-name="ycircumflex" unicode="&#x177;" horiz-adv-x="623" 
d="M244 545h-108l119 152h110l120 -152h-109l-65 79zM594 474l-309 -710h-122l96 220l-235 490h124l170 -354l154 354h122z" />
    <glyph glyph-name="Ydieresis" unicode="&#x178;" horiz-adv-x="689" 
d="M240 754q-30 0 -51.5 20t-21.5 50t21.5 50t51.5 20q31 0 52 -20t21 -50t-21 -50t-52 -20zM448 754q-30 0 -51.5 20t-21.5 50t21.5 50t51.5 20q31 0 52 -20t21 -50t-21 -50t-52 -20zM678 680l-272 -451v-229h-122v229l-273 451h133l200 -333l201 333h133z" />
    <glyph glyph-name="Zacute" unicode="&#x179;" horiz-adv-x="653" 
d="M376 755h-105l75 149h128zM605 109v-109h-559v57l380 514h-366v109h541v-57l-367 -514h371z" />
    <glyph glyph-name="zacute" unicode="&#x17a;" horiz-adv-x="497" 
d="M396 703l-98 -149h-105l75 149h128zM461 473v-62l-254 -315h254v-96h-425v54l259 323h-252v96h418z" />
    <glyph glyph-name="Zdotaccent" unicode="&#x17b;" horiz-adv-x="653" 
d="M327 754q-31 0 -52 20t-21 50t21 50t52 20t52 -20t21 -50t-21 -50t-52 -20zM605 109v-109h-559v57l380 514h-366v109h541v-57l-367 -514h371z" />
    <glyph glyph-name="zdotaccent" unicode="&#x17c;" horiz-adv-x="497" 
d="M248 556q-31 0 -52 20t-21 50t21 50t52 20t52 -20t21 -50t-21 -50t-52 -20zM461 473v-62l-254 -315h254v-96h-425v54l259 323h-252v96h418z" />
    <glyph glyph-name="Zcaron" unicode="&#x17d;" horiz-adv-x="653" 
d="M271 747l-119 152h108l67 -79l65 79h109l-120 -152h-110zM605 109v-109h-559v57l380 514h-366v109h541v-57l-367 -514h371z" />
    <glyph glyph-name="zcaron" unicode="&#x17e;" horiz-adv-x="497" 
d="M303 545h-110l-119 152h108l67 -79l65 79h109zM461 473v-62l-254 -315h254v-96h-425v54l259 323h-252v96h418z" />
    <glyph glyph-name="florin" unicode="&#x192;" horiz-adv-x="561" 
d="M439 578q-87 0 -99 -96l-14 -107h168v-98h-182l-24 -181q-12 -94 -62 -148.5t-134 -54.5q-54 0 -109 15l16 101q43 -9 71 -9q86 0 99 96l24 181h-130v98h143l14 107q12 94 62 148.5t134 54.5q54 0 110 -15l-17 -101q-43 9 -70 9z" />
    <glyph glyph-name="Acaron" unicode="&#x1cd;" horiz-adv-x="750" 
d="M319 747l-119 152h108l67 -79l65 79h109l-120 -152h-110zM538 151h-325l-63 -151h-129l299 684h112l297 -684h-127zM492 262l-116 276l-116 -276h232z" />
    <glyph glyph-name="acaron" unicode="&#x1ce;" horiz-adv-x="611" 
d="M368 545h-110l-119 152h108l67 -79l65 79h109zM428 473h115v-473h-115v33q-61 -44 -145 -44q-99 0 -168.5 72t-69.5 175t69.5 175.5t168.5 72.5q84 0 145 -44v33zM300 89q83 0 128 67v161q-45 67 -128 67q-60 0 -100 -44t-40 -104t40 -103.5t100 -43.5z" />
    <glyph glyph-name="Scommaaccent" unicode="&#x218;" horiz-adv-x="668" 
d="M334 695q48 0 92 -11t84.5 -35t67 -67.5t32.5 -102.5h-119q-18 113 -149 113q-62 0 -98.5 -26.5t-36.5 -72.5q0 -38 27 -59t83 -32l86 -17q102 -20 153 -64t51 -123q0 -95 -72.5 -153.5t-190.5 -58.5q-126 0 -204.5 63.5t-87.5 172.5h119q9 -60 56.5 -95t123.5 -35
q62 0 97.5 24.5t35.5 67.5q0 67 -100 84l-112 22q-192 36 -192 193q0 95 69.5 153.5t184.5 58.5zM288 -248l37 80q-41 15 -41 55q0 26 19.5 44.5t47.5 18.5q27 0 47 -18.5t20 -44.5q0 -17 -8 -33.5t-40 -71.5q-12 -19 -18 -30h-64z" />
    <glyph glyph-name="scommaaccent" unicode="&#x219;" horiz-adv-x="510" 
d="M36 160l106 -1q14 -80 116 -80q42 0 68.5 14t26.5 38q0 39 -57 50l-103 17q-140 25 -140 136q0 70 54.5 111t144.5 41q34 0 66 -7t64 -23t53.5 -48.5t25.5 -78.5l-107 -1q-3 34 -31 51.5t-71 17.5q-40 0 -62.5 -14.5t-22.5 -36.5q0 -42 67 -54l88 -14q141 -25 141 -137
q0 -74 -58 -115t-150 -41q-90 0 -150.5 42t-68.5 133zM170 -248l37 80q-41 15 -41 55q0 26 19.5 44.5t47.5 18.5q27 0 47 -18.5t20 -44.5q0 -17 -7 -32t-40 -72l-18 -31h-65z" />
    <glyph glyph-name="uni021A" unicode="&#x21a;" horiz-adv-x="648" 
d="M620 569h-236v-569h-120v569h-237v111h593v-111zM303 -50q27 0 47 -18.5t20 -44.5q0 -17 -7 -32t-40 -72l-18 -31h-65l37 80q-41 15 -41 55q0 26 19.5 44.5t47.5 18.5z" />
    <glyph glyph-name="uni021B" unicode="&#x21b;" horiz-adv-x="446" 
d="M398 104l16 -99q-66 -20 -118 -20q-85 0 -134 53t-49 144v194h-108v97h108v173h115v-173h175v-97h-175v-194q0 -90 90 -90q37 0 80 12zM245 -50q27 0 47 -18.5t20 -44.5q0 -17 -7 -32t-40 -72l-18 -31h-65l37 80q-41 15 -41 55q0 26 19.5 44.5t47.5 18.5z" />
    <glyph glyph-name="circumflex" unicode="&#x2c6;" 
d="M301 628l-67 -79h-108l119 152h110l120 -152h-109z" />
    <glyph glyph-name="caron" unicode="&#x2c7;" 
d="M475 701l-120 -152h-110l-119 152h108l67 -79l65 79h109z" />
    <glyph glyph-name="breve" unicode="&#x2d8;" 
d="M371 693h84q0 -74 -43 -114t-112 -40t-112 40t-43 114h84q0 -40 20 -58.5t51 -18.5t51 18.5t20 58.5z" />
    <glyph glyph-name="dotaccent" unicode="&#x2d9;" 
d="M300 553q-31 0 -52 20t-21 50t21 50t52 20t52 -20t21 -50t-21 -50t-52 -20z" />
    <glyph glyph-name="ring" unicode="&#x2da;" 
d="M297 755q50 0 81 -29t31 -76t-31 -76t-81 -29t-80.5 29t-30.5 76t30.5 76t80.5 29zM297 604q21 0 34 13t13 33t-13 33t-34 13q-20 0 -33 -13t-13 -33t13 -33t33 -13z" />
    <glyph glyph-name="ogonek" unicode="&#x2db;" 
d="M359 56l10 -53q-69 -11 -69 -49q0 -35 61 -35q14 0 41 5l11 -85q-26 -11 -67 -11q-64 0 -103 31t-39 82q0 44 42 76t113 39z" />
    <glyph glyph-name="tilde" unicode="&#x2dc;" 
d="M386 689h92q0 -43 -17 -73t-42 -42t-54 -11t-53 15l-47 29q-26 13 -38 4t-12 -30h-93q0 43 17 73t43 41.5t54.5 11t52.5 -14.5l46 -29q27 -13 39 -4t12 30z" />
    <glyph glyph-name="hungarumlaut" unicode="&#x2dd;" 
d="M351 706l-81 -149h-96l58 149h119zM497 706l-81 -149h-96l58 149h119z" />
    <glyph glyph-name="uni0326" unicode="&#x326;" horiz-adv-x="0" 
d="M233 -248l37 80q-41 15 -41 55q0 26 19.5 44.5t47.5 18.5q27 0 47 -18.5t20 -44.5q0 -17 -7 -32t-40 -72l-18 -31h-65z" />
    <glyph glyph-name="Wgrave" unicode="&#x1e80;" horiz-adv-x="1077" 
d="M498 755l-98 149h128l75 -149h-105zM1044 680l-226 -684h-118l-162 467l-161 -467h-118l-226 684h126l160 -496l169 496h101l169 -496l160 496h126z" />
    <glyph glyph-name="wgrave" unicode="&#x1e81;" horiz-adv-x="792" 
d="M355 554l-98 149h128l75 -149h-105zM772 473l-177 -473h-101l-98 287l-98 -287h-101l-177 473h125l102 -289l100 289h98l99 -290l103 290h125z" />
    <glyph glyph-name="Wacute" unicode="&#x1e82;" horiz-adv-x="1077" 
d="M588 755h-105l75 149h128zM1044 680l-226 -684h-118l-162 467l-161 -467h-118l-226 684h126l160 -496l169 496h101l169 -496l160 496h126z" />
    <glyph glyph-name="wacute" unicode="&#x1e83;" horiz-adv-x="792" 
d="M445 554h-105l75 149h128zM772 473l-177 -473h-101l-98 287l-98 -287h-101l-177 473h125l102 -289l100 289h98l99 -290l103 290h125z" />
    <glyph glyph-name="Wdieresis" unicode="&#x1e84;" horiz-adv-x="1077" 
d="M434 754q-30 0 -51.5 20t-21.5 50t21.5 50t51.5 20q31 0 52 -20t21 -50t-21 -50t-52 -20zM642 754q-30 0 -51.5 20t-21.5 50t21.5 50t51.5 20q31 0 52 -20t21 -50t-21 -50t-52 -20zM1044 680l-226 -684h-118l-162 467l-161 -467h-118l-226 684h126l160 -496l169 496h101
l169 -496l160 496h126z" />
    <glyph glyph-name="wdieresis" unicode="&#x1e85;" horiz-adv-x="792" 
d="M292 556q-30 0 -51.5 20t-21.5 50t21.5 50t51.5 20q31 0 52 -20t21 -50t-21 -50t-52 -20zM500 556q-30 0 -51.5 20t-21.5 50t21.5 50t51.5 20q31 0 52 -20t21 -50t-21 -50t-52 -20zM772 473l-177 -473h-101l-98 287l-98 -287h-101l-177 473h125l102 -289l100 289h98
l99 -290l103 290h125z" />
    <glyph glyph-name="Ygrave" unicode="&#x1ef2;" horiz-adv-x="689" 
d="M304 755l-98 149h128l75 -149h-105zM678 680l-272 -451v-229h-122v229l-273 451h133l200 -333l201 333h133z" />
    <glyph glyph-name="ygrave" unicode="&#x1ef3;" horiz-adv-x="623" 
d="M270 554l-98 149h128l75 -149h-105zM594 474l-309 -710h-122l96 220l-235 490h124l170 -354l154 354h122z" />
    <glyph glyph-name="endash" unicode="&#x2013;" horiz-adv-x="706" 
d="M601 206v115h-497v-115h497z" />
    <glyph glyph-name="emdash" unicode="&#x2014;" horiz-adv-x="1026" 
d="M929 206v115h-832v-115h832z" />
    <glyph glyph-name="quoteleft" unicode="&#x2018;" horiz-adv-x="209" 
d="M177 679l-49 -109q43 -18 43 -58q0 -28 -20.5 -48t-49.5 -20q-30 0 -50.5 19.5t-20.5 48.5q0 22 23 65l54 102h70z" />
    <glyph glyph-name="quoteright" unicode="&#x2019;" horiz-adv-x="212" 
d="M33 453l48 110q-43 16 -43 58q0 28 20.5 47.5t49.5 19.5q30 0 50.5 -19.5t20.5 -47.5q0 -25 -23 -65l-54 -103h-69z" />
    <glyph glyph-name="quotesinglbase" unicode="&#x201a;" horiz-adv-x="212" 
d="M33 -115l48 109q-43 18 -43 58q0 28 20.5 47.5t49.5 19.5q30 0 50.5 -19.5t20.5 -47.5q0 -25 -23 -65l-54 -102h-69z" />
    <glyph glyph-name="quotedblleft" unicode="&#x201c;" horiz-adv-x="395" 
d="M179 679l-48 -109q43 -18 43 -58q0 -28 -20.5 -48t-49.5 -20q-30 0 -50.5 19.5t-20.5 48.5q0 22 23 65l54 102h69zM362 679l-48 -109q43 -18 43 -58q0 -28 -20.5 -48t-49.5 -20q-30 0 -50.5 19.5t-20.5 48.5q0 22 23 65l54 102h69z" />
    <glyph glyph-name="quotedblright" unicode="&#x201d;" horiz-adv-x="395" 
d="M33 453l48 110q-43 16 -43 58q0 28 20.5 47.5t49.5 19.5q30 0 50.5 -19.5t20.5 -47.5q0 -25 -23 -65l-54 -103h-69zM216 453l48 110q-43 16 -43 58q0 28 20.5 47.5t49.5 19.5q30 0 50.5 -19.5t20.5 -47.5q0 -25 -23 -65l-54 -103h-69z" />
    <glyph glyph-name="quotedblbase" unicode="&#x201e;" horiz-adv-x="398" 
d="M33 -115l48 109q-43 18 -43 58q0 28 20.5 47.5t49.5 19.5q30 0 50.5 -19.5t20.5 -47.5q0 -25 -23 -65l-54 -102h-69zM218 -115l49 109q-43 18 -43 58q0 28 20.5 47.5t49.5 19.5q30 0 50.5 -19.5t20.5 -47.5q0 -23 -23 -65l-54 -102h-70z" />
    <glyph glyph-name="dagger" unicode="&#x2020;" horiz-adv-x="407" 
d="M242 525v-216h-77v216h-118v77h118v118h77v-118h118v-77h-118z" />
    <glyph glyph-name="daggerdbl" unicode="&#x2021;" horiz-adv-x="407" 
d="M242 487h118v-77h-118v-101h-77v101h-118v77h118v60h-118v77h118v96h77v-96h118v-77h-118v-60z" />
    <glyph glyph-name="bullet" unicode="&#x2022;" horiz-adv-x="331" 
d="M165 167q-53 0 -92 39t-39 91t39 91t92 39t92.5 -39t39.5 -91t-39.5 -91t-92.5 -39z" />
    <glyph glyph-name="ellipsis" unicode="&#x2026;" horiz-adv-x="658" 
d="M104 -17q-30 0 -50.5 19.5t-20.5 49.5q0 29 20.5 48.5t50.5 19.5t51 -19.5t21 -48.5q0 -30 -21 -49.5t-51 -19.5zM325 -17q-29 0 -50 20t-21 49t21 48.5t50 19.5q30 0 51 -19.5t21 -48.5q0 -30 -21 -49.5t-51 -19.5zM553 -17q-30 0 -50.5 19.5t-20.5 49.5q0 29 20.5 48.5
t50.5 19.5t51 -19.5t21 -48.5q0 -30 -21 -49.5t-51 -19.5z" />
    <glyph glyph-name="perthousand" unicode="&#x2030;" horiz-adv-x="1543" 
d="M278 695q84 0 140 -54t56 -139q0 -87 -56 -141.5t-140 -54.5t-140.5 54.5t-56.5 141.5q0 85 56.5 139t140.5 54zM346 0h-81l462 680h81zM278 389q46 0 77.5 31.5t31.5 81.5q0 48 -31.5 79t-77.5 31t-78 -31t-32 -79q0 -50 32 -81.5t78 -31.5zM807 374q85 0 141 -54.5
t56 -139.5q0 -87 -56 -141t-141 -54q-84 0 -140 54.5t-56 140.5q0 85 56 139.5t140 54.5zM1265 374q84 0 140.5 -54.5t56.5 -139.5q0 -87 -56 -141t-141 -54t-141 54t-56 141q0 85 56.5 139.5t140.5 54.5zM807 68q47 0 78.5 31.5t31.5 80.5t-31.5 80t-78.5 31
q-45 0 -77 -31.5t-32 -79.5q0 -49 32 -80.5t77 -31.5zM1265 68q46 0 78 31.5t32 80.5t-32 80t-78 31t-78 -31t-32 -80t32 -80.5t78 -31.5z" />
    <glyph glyph-name="guilsinglleft" unicode="&#x2039;" horiz-adv-x="268" 
d="M238 405l-96 -153l96 -153h-112l-96 153l96 153h112z" />
    <glyph glyph-name="guilsinglright" unicode="&#x203a;" horiz-adv-x="268" 
d="M238 252l-96 -153h-112l96 153l-96 153h112z" />
    <glyph glyph-name="fraction" unicode="&#x2044;" horiz-adv-x="483" 
d="M51 0h-81l462 680h81z" />
    <glyph glyph-name="zerosuperior" unicode="&#x2070;" horiz-adv-x="448" 
d="M224 699q89 0 140 -59t51 -150q0 -92 -51 -151t-140 -59t-140 59t-51 151q0 91 51.5 150t139.5 59zM224 360q49 0 75.5 37t26.5 93t-26.5 92.5t-75.5 36.5t-75.5 -36.5t-26.5 -92.5t26.5 -93t75.5 -37z" />
    <glyph glyph-name="foursuperior" unicode="&#x2074;" horiz-adv-x="414" 
d="M384 369h-54v-77h-85v77h-215v55l118 269h89l-104 -248h112v112h85v-112h54v-76z" />
    <glyph glyph-name="fivesuperior" unicode="&#x2075;" horiz-adv-x="391" 
d="M147 553h50q70 0 108.5 -36.5t38.5 -95.5t-42.5 -98.5t-109.5 -39.5q-66 0 -107.5 32.5t-49.5 87.5h86q16 -44 71 -44q31 0 50.5 17.5t19.5 42.5q0 27 -17 43t-50 16h-129v215h262v-79h-181v-61z" />
    <glyph glyph-name="sixsuperior" unicode="&#x2076;" horiz-adv-x="385" 
d="M280 693l-81 -124q68 -1 111 -41.5t43 -99.5q0 -62 -44.5 -103.5t-115.5 -41.5q-70 0 -116 42t-46 100q0 42 40 104l106 164h103zM193 354q32 0 53.5 19.5t21.5 48.5q0 32 -21 51.5t-54 19.5t-55 -19l-1 -1q-20 -29 -20 -49q0 -30 21.5 -50t54.5 -20z" />
    <glyph glyph-name="sevensuperior" unicode="&#x2077;" horiz-adv-x="335" 
d="M315 693v-53l-167 -348h-98l154 319h-184v82h295z" />
    <glyph glyph-name="eightsuperior" unicode="&#x2078;" horiz-adv-x="409" 
d="M306 500q61 -33 61 -98q0 -54 -44 -88t-119 -34q-74 0 -118.5 34t-44.5 88q0 67 62 98q-45 29 -45 83q0 52 40.5 84t105.5 32t106 -32t41 -84q0 -54 -45 -83zM204 630q-26 0 -43 -14.5t-17 -37.5q0 -24 17 -39t43 -15t43.5 15t17.5 39q0 23 -17.5 37.5t-43.5 14.5z
M204 353q30 0 48.5 15.5t18.5 40.5q0 24 -18.5 39t-48.5 15t-48 -15t-18 -39q0 -25 18 -40.5t48 -15.5z" />
    <glyph glyph-name="ninesuperior" unicode="&#x2079;" horiz-adv-x="385" 
d="M192 701q70 0 116 -42t46 -100q0 -42 -40 -104l-106 -164h-103l81 124q-68 1 -111 41.5t-43 99.5q0 62 44.5 103.5t115.5 41.5zM247 510l1 1q20 29 20 49q0 30 -21.5 50t-54.5 20q-32 0 -53.5 -19.5t-21.5 -48.5q0 -32 21 -51.5t54 -19.5t55 19z" />
    <glyph glyph-name="zeroinferior" unicode="&#x2080;" horiz-adv-x="448" 
d="M225 230q89 0 140 -59t51 -150q0 -92 -51 -151t-140 -59t-140 59t-51 151q0 91 51.5 150t139.5 59zM225 -109q49 0 75.5 37t26.5 93t-26.5 92.5t-75.5 36.5t-75.5 -36.5t-26.5 -92.5t26.5 -93t75.5 -37z" />
    <glyph glyph-name="oneinferior" unicode="&#x2081;" horiz-adv-x="333" 
d="M325 -108v-72h-295v72h108v237l-103 -30v75l140 46h46v-328h104z" />
    <glyph glyph-name="twoinferior" unicode="&#x2082;" horiz-adv-x="366" 
d="M333 -108v-72h-293v45l144 153q32 32 44 50.5t12 37.5q0 21 -15 34.5t-39 13.5q-59 0 -62 -58h-86q1 61 39 97.5t106 36.5t106 -34.5t38 -84.5q0 -55 -69 -132l-80 -87h155z" />
    <glyph glyph-name="threeinferior" unicode="&#x2083;" horiz-adv-x="379" 
d="M287 22q54 -28 54 -88q0 -53 -41.5 -88t-108.5 -35q-65 0 -105.5 32.5t-50.5 89.5h87q14 -47 70 -47q30 0 48 13.5t18 34.5q0 50 -75 50h-32v70h32q27 0 44 14t17 36t-15 35t-41 13q-25 0 -39 -13t-16 -34h-87q5 56 42.5 89t98.5 33q63 0 101 -34.5t38 -88.5
q0 -52 -39 -82z" />
    <glyph glyph-name="fourinferior" unicode="&#x2084;" horiz-adv-x="414" 
d="M384 -103h-54v-77h-85v77h-215v55l118 269h89l-104 -248h112v112h85v-112h54v-76z" />
    <glyph glyph-name="fiveinferior" unicode="&#x2085;" horiz-adv-x="391" 
d="M147 81h50q70 0 108.5 -36.5t38.5 -95.5t-42.5 -98.5t-109.5 -39.5q-66 0 -107.5 32.5t-49.5 87.5h86q16 -44 71 -44q31 0 50.5 17.5t19.5 42.5q0 27 -17 43t-50 16h-129v215h262v-79h-181v-61z" />
    <glyph glyph-name="sixinferior" unicode="&#x2086;" horiz-adv-x="385" 
d="M280 221l-81 -124q68 -1 111 -41.5t43 -99.5q0 -62 -44.5 -103.5t-115.5 -41.5q-70 0 -116 42t-46 100q0 42 40 104l106 164h103zM193 -118q32 0 53.5 19.5t21.5 48.5q0 32 -21 51.5t-54 19.5t-55 -19l-1 -1q-20 -29 -20 -49q0 -30 21.5 -50t54.5 -20z" />
    <glyph glyph-name="seveninferior" unicode="&#x2087;" horiz-adv-x="335" 
d="M315 221v-53l-167 -348h-98l154 319h-184v82h295z" />
    <glyph glyph-name="eightinferior" unicode="&#x2088;" horiz-adv-x="409" 
d="M306 31q61 -33 61 -98q0 -54 -44 -88t-119 -34q-74 0 -118.5 34t-44.5 88q0 67 62 98q-45 29 -45 83q0 52 40.5 84t105.5 32t106 -32t41 -84q0 -54 -45 -83zM204 161q-26 0 -43 -14.5t-17 -37.5q0 -24 17 -39t43 -15t43.5 15t17.5 39q0 23 -17.5 37.5t-43.5 14.5z
M204 -116q30 0 48.5 15.5t18.5 40.5q0 24 -18.5 39t-48.5 15t-48 -15t-18 -39q0 -25 18 -40.5t48 -15.5z" />
    <glyph glyph-name="nineinferior" unicode="&#x2089;" horiz-adv-x="385" 
d="M192 231q70 0 116 -42t46 -100q0 -42 -40 -104l-106 -164h-103l81 124q-68 1 -111 41.5t-43 99.5q0 62 44.5 103.5t115.5 41.5zM247 40l1 1q20 29 20 49q0 30 -21.5 50t-54.5 20q-32 0 -53.5 -19.5t-21.5 -48.5q0 -32 21 -51.5t54 -19.5t55 19z" />
    <glyph glyph-name="Euro" unicode="&#x20ac;" horiz-adv-x="865" 
d="M478 101q80 0 133.5 42.5t73.5 120.5h123q-23 -126 -112.5 -202t-217.5 -76q-114 0 -204.5 62.5t-127.5 165.5h-105v82h85q-2 28 -2 44l1 24h-84v82h98q33 111 126 179.5t213 68.5q128 0 217.5 -76t112.5 -202h-123q-20 78 -73.5 120.5t-133.5 42.5q-72 0 -128 -35.5
t-83 -97.5h279l-22 -82h-278q-1 -8 -1 -24q0 -23 3 -44h260l-20 -82h-211q29 -53 82 -83t119 -30z" />
    <glyph glyph-name="uni2116" unicode="&#x2116;" horiz-adv-x="1382" 
d="M558 211v469h119v-680h-94l-387 458v-458h-120v680h91zM1054 174q-108 0 -180 71.5t-72 179.5q0 107 72 177.5t180 70.5t179.5 -70.5t71.5 -177.5q0 -108 -71.5 -179.5t-179.5 -71.5zM1054 568q-60 0 -98 -41t-38 -102q0 -62 38 -104t98 -42t98 42t38 104q0 61 -38 102
t-98 41zM815 0v102h478v-102h-478z" />
    <glyph glyph-name="uni2117" unicode="&#x2117;" horiz-adv-x="840" 
d="M420 695q150 0 257 -102t107 -253t-107 -253t-257 -102t-257 102t-107 253t107 253t257 102zM419 619q-115 0 -199 -81t-84 -198t84 -198t199 -81q116 0 200 81t84 198t-84 198t-200 81zM307 512h136q59 0 95 -31.5t36 -83.5t-36.5 -82t-97.5 -30h-63v-97h-70v324z
M377 446v-98h65q28 0 44 13.5t16 36.5q0 21 -16 34.5t-44 13.5h-65z" />
    <glyph glyph-name="trademark" unicode="&#x2122;" horiz-adv-x="694" 
d="M291 679v-63h-98v-229h-66v229h-98v63h262zM648 679v-292h-66v159l-80 -124h-35v1l-81 124l1 -160h-65v292h48l115 -171l114 171h49z" />
    <glyph glyph-name="oneeighth" unicode="&#x215b;" horiz-adv-x="948" 
d="M741 680l-462 -680h-81l462 680h81zM30 279v72h108v237l-103 -30v75l140 46h46v-328h104v-72h-295zM846 211q61 -33 61 -98q0 -54 -44 -88t-119 -34q-74 0 -118.5 34t-44.5 88q0 67 62 98q-46 30 -46 83q0 52 41 84t106 32t106 -32t41 -84q0 -54 -45 -83zM744 341
q-26 0 -43.5 -14.5t-17.5 -37.5q0 -24 17.5 -39t43.5 -15t43.5 15t17.5 39q0 23 -17.5 37.5t-43.5 14.5zM744 64q30 0 48 15.5t18 40.5q0 24 -18 39t-48 15t-48 -15t-18 -39q0 -25 18 -40.5t48 -15.5z" />
    <glyph glyph-name="threeeighths" unicode="&#x215c;" horiz-adv-x="926" 
d="M343 397q0 -53 -41.5 -88t-108.5 -35q-65 0 -105.5 32.5t-50.5 89.5h87q14 -47 70 -47q30 0 48 13.5t18 34.5q0 50 -75 50h-32v70h32q27 0 44 14t17 36t-15 35t-41 13q-25 0 -39 -13t-16 -34h-87q5 56 42.5 89t98.5 33q63 0 101 -34.5t38 -88.5q0 -52 -39 -82
q54 -28 54 -88zM719 680l-462 -680h-81l462 680h81zM824 211q61 -33 61 -98q0 -54 -44 -88t-119 -34q-74 0 -118.5 34t-44.5 88q0 67 62 98q-46 30 -46 83q0 52 41 84t106 32t106 -32t41 -84q0 -54 -45 -83zM722 341q-26 0 -43.5 -14.5t-17.5 -37.5q0 -24 17.5 -39t43.5 -15
t43.5 15t17.5 39q0 23 -17.5 37.5t-43.5 14.5zM722 64q30 0 48 15.5t18 40.5q0 24 -18 39t-48 15t-48 -15t-18 -39q0 -25 18 -40.5t48 -15.5z" />
    <glyph glyph-name="fiveeighths" unicode="&#x215d;" horiz-adv-x="931" 
d="M344 408q0 -59 -42.5 -98.5t-109.5 -39.5q-66 0 -107.5 32.5t-49.5 87.5h86q16 -44 71 -44q31 0 50.5 17.5t19.5 42.5q0 27 -17 43t-50 16h-129v215h262v-79h-181v-61h50q70 0 108.5 -36.5t38.5 -95.5zM723 680l-462 -680h-81l462 680h81zM828 211q61 -33 61 -98
q0 -54 -44 -88t-119 -34q-74 0 -118.5 34t-44.5 88q0 67 62 98q-46 30 -46 83q0 52 41 84t106 32t106 -32t41 -84q0 -54 -45 -83zM726 341q-26 0 -43 -14.5t-17 -37.5q0 -24 17 -39t43 -15t43.5 15t17.5 39q0 23 -17.5 37.5t-43.5 14.5zM726 64q30 0 48 15.5t18 40.5
q0 24 -18 39t-48 15t-48 -15t-18 -39q0 -25 18 -40.5t48 -15.5z" />
    <glyph glyph-name="seveneighths" unicode="&#x215e;" horiz-adv-x="845" 
d="M67 279l154 319h-184v82h295v-53l-167 -348h-98zM638 680l-462 -680h-82l462 680h82zM742 211q61 -33 61 -98q0 -54 -44 -88t-119 -34q-74 0 -118 34t-44 88q0 67 61 98q-45 31 -45 83t40.5 84t105.5 32t106 -32t41 -84q0 -54 -45 -83zM640 341q-26 0 -43 -14.5
t-17 -37.5q0 -24 17 -39t43 -15q27 0 44 15t17 39q0 23 -17.5 37.5t-43.5 14.5zM640 64q30 0 48.5 15.5t18.5 40.5q0 24 -18.5 39t-48.5 15q-29 0 -47.5 -15t-18.5 -39q0 -25 18.5 -40.5t47.5 -15.5z" />
    <glyph glyph-name="arrowleft" unicode="&#x2190;" horiz-adv-x="766" 
d="M237 287l218 -214l-76 -76l-345 344l345 345l76 -77l-217 -212h488v-110h-489z" />
    <glyph glyph-name="arrowup" unicode="&#x2191;" horiz-adv-x="779" 
d="M335 489l-213 -218l-77 76l345 345l344 -345l-76 -76l-213 217v-488h-110v489z" />
    <glyph glyph-name="arrowright" unicode="&#x2192;" horiz-adv-x="766" 
d="M40 397h488l-217 212l76 77l345 -345l-345 -344l-76 76l218 214h-489v110z" />
    <glyph glyph-name="arrowdown" unicode="&#x2193;" horiz-adv-x="779" 
d="M445 680v-488l213 217l76 -76l-344 -345l-345 345l77 76l213 -218v489h110z" />
    <glyph glyph-name="uni2196" unicode="&#x2196;" horiz-adv-x="798" 
d="M692 0l-494 494v-302h-108v488h488v-108h-303l495 -495z" />
    <glyph glyph-name="uni2197" unicode="&#x2197;" horiz-adv-x="804" 
d="M529 572h-303v108h488v-488h-109l1 302l-494 -494l-78 77z" />
    <glyph glyph-name="uni2198" unicode="&#x2198;" horiz-adv-x="798" 
d="M106 680l494 -494v302h108v-488h-488v108h303l-494 495z" />
    <glyph glyph-name="uni2199" unicode="&#x2199;" horiz-adv-x="795" 
d="M275 108h303v-108h-488v488h108v-302l494 494l78 -77z" />
    <glyph glyph-name="minus" unicode="&#x2212;" horiz-adv-x="685" 
d="M104 383h477v-106h-477v106z" />
    <glyph glyph-name="R.ss02" horiz-adv-x="685" 
d="M230 224h-34v-224h-120v680h275q121 0 194.5 -62.5t73.5 -165.5q0 -93 -60 -153.5t-162 -71.5l263 -227h-168zM196 335h150q70 0 112.5 31.5t42.5 85.5t-42.5 85.5t-112.5 31.5h-150v-234z" />
    <glyph glyph-name="Racute.ss02" horiz-adv-x="685" 
d="M374 755h-105l75 149h128zM230 224h-34v-224h-120v680h275q121 0 194.5 -62.5t73.5 -165.5q0 -93 -60 -153.5t-162 -71.5l263 -227h-168zM196 335h150q70 0 112.5 31.5t42.5 85.5t-42.5 85.5t-112.5 31.5h-150v-234z" />
    <glyph glyph-name="Rcaron.ss02" horiz-adv-x="685" 
d="M268 747l-119 152h108l67 -79l65 79h109l-120 -152h-110zM230 224h-34v-224h-120v680h275q121 0 194.5 -62.5t73.5 -165.5q0 -93 -60 -153.5t-162 -71.5l263 -227h-168zM196 335h150q70 0 112.5 31.5t42.5 85.5t-42.5 85.5t-112.5 31.5h-150v-234z" />
    <glyph glyph-name="Rcommaaccent.ss02" horiz-adv-x="685" 
d="M660 0h-168l-262 224h-34v-224h-120v680h275q121 0 194.5 -62.5t73.5 -165.5q0 -93 -60 -153.5t-162 -71.5zM196 335h150q70 0 112.5 31.5t42.5 85.5t-42.5 85.5t-112.5 31.5h-150v-234zM333 -50q27 0 47 -18.5t20 -44.5q0 -17 -7 -32t-40 -72l-18 -31h-65l37 80
q-41 15 -41 55q0 26 19.5 44.5t47.5 18.5z" />
    <glyph glyph-name="Q.ss03" horiz-adv-x="820" 
d="M410 694q147 0 250.5 -103.5t103.5 -250.5t-103.5 -250.5t-250.5 -103.5t-250.5 103.5t-103.5 250.5t103.5 250.5t250.5 103.5zM410 98q99 0 166 70.5t67 171.5t-67 171.5t-166 70.5q-98 0 -165 -70.5t-67 -171.5t67 -171.5t165 -70.5zM720 -107l-15 -114
q-167 24 -328 73l11 88z" />
    <glyph glyph-name="i.loclTRK" horiz-adv-x="266" 
d="M133 575q-30 0 -51 20t-21 49q0 30 21 50.5t51 20.5t51 -20.5t21 -50.5q0 -29 -21 -49t-51 -20zM76 473h115v-473h-115v473z" />
    <glyph glyph-name="germandbls.case" horiz-adv-x="1309" 
d="M334 695q48 0 92 -11t84.5 -35t67 -67.5t32.5 -102.5h-119q-18 113 -149 113q-62 0 -98.5 -26.5t-36.5 -72.5q0 -38 27 -59t83 -32l86 -17q102 -20 153 -64t51 -123q0 -95 -72.5 -153.5t-190.5 -58.5q-126 0 -204.5 63.5t-87.5 172.5h119q9 -60 56.5 -95t123.5 -35
q62 0 97.5 24.5t35.5 67.5q0 67 -100 84l-112 22q-192 36 -192 193q0 95 69.5 153.5t184.5 58.5zM976 695q48 0 92 -11t84.5 -35t67 -67.5t32.5 -102.5h-119q-18 113 -149 113q-62 0 -98.5 -26.5t-36.5 -72.5q0 -38 27 -59t83 -32l86 -17q102 -20 153 -64t51 -123
q0 -95 -72.5 -153.5t-190.5 -58.5q-126 0 -204.5 63.5t-87.5 172.5h119q9 -60 56.5 -95t123.5 -35q62 0 97.5 24.5t35.5 67.5q0 67 -100 84l-112 22q-192 36 -192 193q0 95 69.5 153.5t184.5 58.5z" />
    <glyph glyph-name="l.ss01" horiz-adv-x="374" 
d="M185 710v-551q0 -67 64 -67q33 0 76 12l16 -99q-68 -20 -110 -20q-78 0 -119.5 42.5t-41.5 122.5v560h115z" />
    <glyph glyph-name="lacute.ss01" horiz-adv-x="374" 
d="M276 940l-98 -149h-105l75 149h128zM185 710v-551q0 -67 64 -67q33 0 76 12l16 -99q-68 -20 -110 -20q-78 0 -119.5 42.5t-41.5 122.5v560h115z" />
    <glyph glyph-name="lcaron.ss01" horiz-adv-x="374" 
d="M185 710v-551q0 -67 64 -67q33 0 76 12l16 -99q-68 -20 -110 -20q-78 0 -119.5 42.5t-41.5 122.5v560h115zM376 710l-36 -199h-88l7 199h117z" />
    <glyph glyph-name="lcommaaccent.ss01" horiz-adv-x="374" 
d="M185 710v-551q0 -67 64 -67q33 0 76 12l16 -99q-68 -20 -110 -20q-78 0 -119.5 42.5t-41.5 122.5v560h115zM139 -248l37 80q-41 15 -41 55q0 26 19.5 44.5t47.5 18.5q27 0 47 -18.5t20 -44.5q0 -17 -7 -32t-40 -72l-18 -31h-65z" />
    <glyph glyph-name="ldot.ss01" horiz-adv-x="407" 
d="M185 710v-551q0 -67 64 -67q33 0 76 12l16 -99q-68 -20 -110 -20q-78 0 -119.5 42.5t-41.5 122.5v560h115zM310 259q-31 0 -52 20t-21 50t21 50t52 20q30 0 51.5 -20t21.5 -50t-21.5 -50t-51.5 -20z" />
    <glyph glyph-name="lslash.ss01" horiz-adv-x="374" 
d="M325 104l16 -99q-68 -20 -110 -20q-78 0 -119.5 42.5t-41.5 122.5v137l-65 -28v118l65 28v305h115v-257l79 34v-117l-79 -34v-177q0 -67 64 -67q33 0 76 12z" />
    <glyph glyph-name="y.ss04" horiz-adv-x="603" 
d="M535 473v-476q0 -107 -66 -170t-172 -63q-99 0 -167 55t-76 141h117q6 -41 39 -66t87 -25q55 0 89 34t34 94v69q-64 -55 -145 -55q-95 0 -152 62t-57 165v235h115v-228q0 -62 31 -95.5t87 -33.5q66 0 121 69v288h115z" />
    <glyph glyph-name="yacute.ss04" horiz-adv-x="603" 
d="M350 554h-105l75 149h128zM535 473v-476q0 -107 -66 -170t-172 -63q-99 0 -167 55t-76 141h117q6 -41 39 -66t87 -25q55 0 89 34t34 94v69q-64 -55 -145 -55q-95 0 -152 62t-57 165v235h115v-228q0 -62 31 -95.5t87 -33.5q66 0 121 69v288h115z" />
    <glyph glyph-name="ycircumflex.ss04" horiz-adv-x="603" 
d="M234 545h-108l119 152h110l120 -152h-109l-65 79zM535 473v-476q0 -107 -66 -170t-172 -63q-99 0 -167 55t-76 141h117q6 -41 39 -66t87 -25q55 0 89 34t34 94v69q-64 -55 -145 -55q-95 0 -152 62t-57 165v235h115v-228q0 -62 31 -95.5t87 -33.5q66 0 121 69v288h115z
" />
    <glyph glyph-name="ydieresis.ss04" horiz-adv-x="603" 
d="M197 556q-30 0 -51.5 20t-21.5 50t21.5 50t51.5 20q31 0 52 -20t21 -50t-21 -50t-52 -20zM405 556q-30 0 -51.5 20t-21.5 50t21.5 50t51.5 20q31 0 52 -20t21 -50t-21 -50t-52 -20zM535 473v-476q0 -107 -66 -170t-172 -63q-99 0 -167 55t-76 141h117q6 -41 39 -66
t87 -25q55 0 89 34t34 94v69q-64 -55 -145 -55q-95 0 -152 62t-57 165v235h115v-228q0 -62 31 -95.5t87 -33.5q66 0 121 69v288h115z" />
    <glyph glyph-name="ygrave.ss04" horiz-adv-x="603" 
d="M260 554l-98 149h128l75 -149h-105zM535 473v-476q0 -107 -66 -170t-172 -63q-99 0 -167 55t-76 141h117q6 -41 39 -66t87 -25q55 0 89 34t34 94v69q-64 -55 -145 -55q-95 0 -152 62t-57 165v235h115v-228q0 -62 31 -95.5t87 -33.5q66 0 121 69v288h115z" />
    <glyph glyph-name="a.ss06" horiz-adv-x="542" 
d="M270 487q98 0 156 -55.5t58 -152.5v-279h-114v27q-69 -37 -145 -37q-90 0 -139.5 40.5t-49.5 112.5q0 66 48.5 101t131.5 35h154q0 48 -24 78.5t-76 30.5q-39 0 -66.5 -18t-31.5 -50h-116q6 82 68.5 124.5t145.5 42.5zM239 85q69 0 131 42v66h-156q-34 0 -51 -14t-17 -35
q0 -26 23 -42.5t70 -16.5z" />
    <glyph glyph-name="aacute.ss06" horiz-adv-x="542" 
d="M323 554h-105l75 149h128zM270 487q98 0 156 -55.5t58 -152.5v-279h-114v27q-69 -37 -145 -37q-90 0 -139.5 40.5t-49.5 112.5q0 66 48.5 101t131.5 35h154q0 48 -24 78.5t-76 30.5q-39 0 -66.5 -18t-31.5 -50h-116q6 82 68.5 124.5t145.5 42.5zM239 85q69 0 131 42v66
h-156q-34 0 -51 -14t-17 -35q0 -26 23 -42.5t70 -16.5z" />
    <glyph glyph-name="abreve.ss06" horiz-adv-x="542" 
d="M274 540q-69 0 -112 40t-43 114h84q0 -40 20 -58.5t51 -18.5t51 18.5t20 58.5h84q0 -74 -43 -114t-112 -40zM270 487q98 0 156 -55.5t58 -152.5v-279h-114v27q-69 -37 -145 -37q-90 0 -139.5 40.5t-49.5 112.5q0 66 48.5 101t131.5 35h154q0 48 -24 78.5t-76 30.5
q-39 0 -66.5 -18t-31.5 -50h-116q6 82 68.5 124.5t145.5 42.5zM239 85q69 0 131 42v66h-156q-34 0 -51 -14t-17 -35q0 -26 23 -42.5t70 -16.5z" />
    <glyph glyph-name="acaron.ss06" horiz-adv-x="542" 
d="M218 545l-119 152h108l67 -79l65 79h109l-120 -152h-110zM270 487q98 0 156 -55.5t58 -152.5v-279h-114v27q-69 -37 -145 -37q-90 0 -139.5 40.5t-49.5 112.5q0 66 48.5 101t131.5 35h154q0 48 -24 78.5t-76 30.5q-39 0 -66.5 -18t-31.5 -50h-116q6 82 68.5 124.5
t145.5 42.5zM239 85q69 0 131 42v66h-156q-34 0 -51 -14t-17 -35q0 -26 23 -42.5t70 -16.5z" />
    <glyph glyph-name="acircumflex.ss06" horiz-adv-x="542" 
d="M207 545h-108l119 152h110l120 -152h-109l-65 79zM270 487q98 0 156 -55.5t58 -152.5v-279h-114v27q-69 -37 -145 -37q-90 0 -139.5 40.5t-49.5 112.5q0 66 48.5 101t131.5 35h154q0 48 -24 78.5t-76 30.5q-39 0 -66.5 -18t-31.5 -50h-116q6 82 68.5 124.5t145.5 42.5z
M239 85q69 0 131 42v66h-156q-34 0 -51 -14t-17 -35q0 -26 23 -42.5t70 -16.5z" />
    <glyph glyph-name="adieresis.ss06" horiz-adv-x="542" 
d="M170 556q-30 0 -51.5 20t-21.5 50t21.5 50t51.5 20q31 0 52 -20t21 -50t-21 -50t-52 -20zM378 556q-30 0 -51.5 20t-21.5 50t21.5 50t51.5 20q31 0 52 -20t21 -50t-21 -50t-52 -20zM270 487q98 0 156 -55.5t58 -152.5v-279h-114v27q-69 -37 -145 -37q-90 0 -139.5 40.5
t-49.5 112.5q0 66 48.5 101t131.5 35h154q0 48 -24 78.5t-76 30.5q-39 0 -66.5 -18t-31.5 -50h-116q6 82 68.5 124.5t145.5 42.5zM239 85q69 0 131 42v66h-156q-34 0 -51 -14t-17 -35q0 -26 23 -42.5t70 -16.5z" />
    <glyph glyph-name="agrave.ss06" horiz-adv-x="542" 
d="M233 554l-98 149h128l75 -149h-105zM270 487q98 0 156 -55.5t58 -152.5v-279h-114v27q-69 -37 -145 -37q-90 0 -139.5 40.5t-49.5 112.5q0 66 48.5 101t131.5 35h154q0 48 -24 78.5t-76 30.5q-39 0 -66.5 -18t-31.5 -50h-116q6 82 68.5 124.5t145.5 42.5zM239 85
q69 0 131 42v66h-156q-34 0 -51 -14t-17 -35q0 -26 23 -42.5t70 -16.5z" />
    <glyph glyph-name="amacron.ss06" horiz-adv-x="542" 
d="M414 573h-280v95h280v-95zM270 487q98 0 156 -55.5t58 -152.5v-279h-114v27q-69 -37 -145 -37q-90 0 -139.5 40.5t-49.5 112.5q0 66 48.5 101t131.5 35h154q0 48 -24 78.5t-76 30.5q-39 0 -66.5 -18t-31.5 -50h-116q6 82 68.5 124.5t145.5 42.5zM239 85q69 0 131 42v66
h-156q-34 0 -51 -14t-17 -35q0 -26 23 -42.5t70 -16.5z" />
    <glyph glyph-name="aogonek.ss06" horiz-adv-x="542" 
d="M516 -79l11 -85q-26 -11 -67 -11q-64 0 -103 31t-39 82q0 50 52 83v6q-69 -37 -145 -37q-90 0 -139.5 40.5t-49.5 112.5q0 66 48.5 101t131.5 35h154q0 48 -24 78.5t-76 30.5q-39 0 -66.5 -18t-31.5 -50h-116q6 82 68.5 124.5t145.5 42.5q98 0 156 -55.5t58 -152.5v-279
h-1q-69 -12 -69 -49q0 -35 61 -35q14 0 41 5zM239 85q69 0 131 42v66h-156q-34 0 -51 -14t-17 -35q0 -26 23 -42.5t70 -16.5z" />
    <glyph glyph-name="aring.ss06" horiz-adv-x="542" 
d="M273 542q-50 0 -80.5 29t-30.5 76t30.5 76t80.5 29t81 -29t31 -76t-31 -76t-81 -29zM273 693q-20 0 -33 -13t-13 -33t13 -33t33 -13q21 0 34 13t13 33t-13 33t-34 13zM270 487q98 0 156 -55.5t58 -152.5v-279h-114v27q-69 -37 -145 -37q-90 0 -139.5 40.5t-49.5 112.5
q0 66 48.5 101t131.5 35h154q0 48 -24 78.5t-76 30.5q-39 0 -66.5 -18t-31.5 -50h-116q6 82 68.5 124.5t145.5 42.5zM239 85q69 0 131 42v66h-156q-34 0 -51 -14t-17 -35q0 -26 23 -42.5t70 -16.5z" />
    <glyph glyph-name="atilde.ss06" horiz-adv-x="542" 
d="M288 575l-47 29q-26 13 -38 4t-12 -30h-93q0 43 17 73t43 41.5t54.5 11t52.5 -14.5l46 -29q27 -13 39 -4t12 30h92q0 -43 -17 -73t-42 -42t-54 -11t-53 15zM270 487q98 0 156 -55.5t58 -152.5v-279h-114v27q-69 -37 -145 -37q-90 0 -139.5 40.5t-49.5 112.5
q0 66 48.5 101t131.5 35h154q0 48 -24 78.5t-76 30.5q-39 0 -66.5 -18t-31.5 -50h-116q6 82 68.5 124.5t145.5 42.5zM239 85q69 0 131 42v66h-156q-34 0 -51 -14t-17 -35q0 -26 23 -42.5t70 -16.5z" />
    <glyph glyph-name="zero.osf" horiz-adv-x="652" 
d="M327 555q123 0 201.5 -78.5t78.5 -205.5q0 -126 -78.5 -204.5t-201.5 -78.5t-202.5 78.5t-79.5 204.5t79.5 205t202.5 79zM327 94q70 0 117.5 49.5t47.5 127.5q0 79 -47.5 128.5t-117.5 49.5q-72 0 -119.5 -49.5t-47.5 -128.5q0 -78 47.5 -127.5t119.5 -49.5z" />
    <glyph glyph-name="one.osf" horiz-adv-x="516" 
d="M509 98v-98h-467v98h179v324l-170 -54v102l222 80h68v-452h168z" />
    <glyph glyph-name="two.osf" horiz-adv-x="559" 
d="M509 98v-98h-455v62l145 106l36 26l38 27.5t33 25t31 27.5t22 25.5t17 28t5 27.5q0 39 -27 66t-81 27q-53 0 -84.5 -30.5t-35.5 -83.5h-117q3 98 65 157.5t168 59.5q107 0 169.5 -57.5t62.5 -142.5q0 -84 -90 -157q-30 -24 -122 -84l-18 -12h238z" />
    <glyph glyph-name="three.osf" horiz-adv-x="561" 
d="M427 203q97 -47 97 -154q0 -88 -65.5 -145.5t-170.5 -57.5q-109 0 -171 52t-76 144h117q23 -94 130 -94q55 0 89.5 28.5t34.5 72.5q0 46 -37 73.5t-97 27.5h-53v97h53q50 0 80.5 28t30.5 73q0 46 -29 73.5t-77 27.5q-44 0 -74.5 -25.5t-34.5 -67.5h-117q7 88 69 142
t157 54q98 0 158 -57t60 -146q0 -97 -74 -146z" />
    <glyph glyph-name="four.osf" horiz-adv-x="639" 
d="M598 4h-94v-138h-116v138h-352v74l195 468h121l-178 -440h214v203h116v-203h94v-102z" />
    <glyph glyph-name="five.osf" horiz-adv-x="590" 
d="M201 296h100q105 0 170.5 -60.5t65.5 -155.5q0 -100 -68 -166t-176 -66q-107 0 -173 54t-81 147h117q28 -99 137 -99q58 0 95 36t37 90q0 52 -37.5 85t-101.5 33h-195v349h416v-107h-305z" />
    <glyph glyph-name="six.osf" horiz-adv-x="617" 
d="M296 463h13q114 0 187 -67t73 -169q0 -104 -73.5 -173t-186.5 -69q-114 0 -187.5 69t-73.5 170q0 73 61 168l188 288h139zM309 81q62 0 103 41t41 98q0 58 -40.5 98t-103.5 40q-61 0 -101 -32l-1 -1q-44 -61 -44 -106q0 -57 41.5 -97.5t104.5 -40.5z" />
    <glyph glyph-name="seven.osf" horiz-adv-x="504" 
d="M484 540v-72l-285 -608h-132l267 568h-323v112h473z" />
    <glyph glyph-name="eight.osf" horiz-adv-x="626" 
d="M465 358q113 -52 113 -167q0 -92 -72 -149t-194 -57q-121 0 -192.5 57t-71.5 149q0 115 113 168q-86 48 -86 144q0 84 66.5 138t170.5 54q105 0 171.5 -54t66.5 -138q0 -95 -85 -145zM312 601q-53 0 -86.5 -30t-33.5 -75t33.5 -75t86.5 -30t87 30t34 75t-34 75t-87 30z
M312 84q59 0 97 33t38 82q0 47 -38 78.5t-97 31.5t-96 -31t-37 -79q0 -49 37 -82t96 -33z" />
    <glyph glyph-name="nine.osf" horiz-adv-x="617" 
d="M308 556q114 0 187.5 -69t73.5 -170q0 -73 -61 -168l-188 -288h-139l140 217h-13q-114 0 -187 67t-73 169q0 104 73.5 173t186.5 69zM409 215l1 1q44 61 44 106q0 57 -41.5 97.5t-104.5 40.5q-62 0 -103 -41t-41 -98q0 -58 40.5 -98t103.5 -40q61 0 101 32z" />
    <glyph glyph-name="zero.tf" horiz-adv-x="631" 
d="M313 695q138 0 214.5 -98.5t76.5 -256.5t-76.5 -256.5t-214.5 -98.5t-215 98.5t-77 256.5t77 256.5t215 98.5zM313 93q85 0 128 68.5t43 178.5t-43 178.5t-128 68.5t-128 -68t-43 -179t43 -179t128 -68z" />
    <glyph glyph-name="one.tf" horiz-adv-x="631" 
d="M577 98v-98h-506v98h205v454l-170 -54v102l221 80h68v-582h182z" />
    <glyph glyph-name="two.tf" horiz-adv-x="631" 
d="M540 98v-98h-456v62l214 249q47 53 63.5 73t33.5 51t17 58q0 40 -27.5 69.5t-81.5 29.5q-51 0 -82.5 -30.5t-36.5 -82.5h-119q3 97 69 156.5t173 59.5t166 -58t59 -145q0 -51 -29 -97.5t-105 -133.5l-141 -163h283z" />
    <glyph glyph-name="three.tf" horiz-adv-x="631" 
d="M459 343q97 -47 97 -154q0 -88 -65.5 -145.5t-170.5 -57.5q-109 0 -171 52t-76 144h117q23 -94 130 -94q55 0 89.5 28.5t34.5 72.5q0 46 -37 73.5t-97 27.5h-53v97h53q50 0 80.5 28t30.5 73q0 46 -29 73.5t-77 27.5q-44 0 -74.5 -25.5t-34.5 -67.5h-117q7 88 69 142
t157 54q98 0 158 -57t60 -146q0 -97 -74 -146z" />
    <glyph glyph-name="four.tf" horiz-adv-x="631" 
d="M580 138h-94v-138h-116v138h-352v74l195 468h121l-178 -440h214v203h116v-203h94v-102z" />
    <glyph glyph-name="five.tf" horiz-adv-x="631" 
d="M203 433h100q105 0 170.5 -60.5t65.5 -155.5q0 -100 -68 -166t-176 -66q-107 0 -173 54t-81 147h117q28 -99 137 -99q58 0 95 36t37 90q0 52 -37.5 85t-101.5 33h-195v349h416v-107h-305z" />
    <glyph glyph-name="six.tf" horiz-adv-x="631" 
d="M304 463h13q114 0 187 -67t73 -169q0 -104 -73.5 -173t-186.5 -69q-114 0 -187.5 69t-73.5 170q0 73 61 168l188 288h139zM317 81q62 0 103 41t41 98q0 58 -40.5 98t-103.5 40q-61 0 -101 -32l-1 -1q-44 -61 -44 -106q0 -57 41.5 -97.5t104.5 -40.5z" />
    <glyph glyph-name="seven.tf" horiz-adv-x="631" 
d="M554 680v-72l-284 -608h-133l267 568h-322v112h472z" />
    <glyph glyph-name="eight.tf" horiz-adv-x="631" 
d="M475 359q113 -53 113 -168q0 -92 -71.5 -149t-193.5 -57t-193.5 57t-71.5 149q0 116 113 168q-85 48 -85 144q0 84 66 138t171 54q104 0 170.5 -54t66.5 -138q0 -96 -85 -144zM323 601q-53 0 -86.5 -30t-33.5 -75q0 -46 33.5 -75.5t86.5 -29.5t86.5 30t33.5 75t-33.5 75
t-86.5 30zM323 84q58 0 96 33t38 82q0 47 -37.5 78.5t-96.5 31.5t-96.5 -31t-37.5 -79q0 -49 37.5 -82t96.5 -33z" />
    <glyph glyph-name="nine.tf" horiz-adv-x="597" 
d="M294 695q113 0 186.5 -69t73.5 -170q0 -72 -60 -168l-188 -288h-140l140 217h-13q-114 0 -187 67t-73 169q0 104 73.5 173t187.5 69zM394 354l1 1q44 61 44 106q0 57 -41.5 97.5t-103.5 40.5q-63 0 -104 -41t-41 -98q0 -58 41 -98t104 -40q60 0 100 32z" />
    <glyph glyph-name="zero.zero" horiz-adv-x="719" 
d="M360 695q140 0 221 -99t81 -256t-81 -256t-221 -99q-141 0 -222.5 99t-81.5 256t81.5 256t222.5 99zM360 587q-88 0 -135.5 -69t-47.5 -178q0 -74 23 -132l244 357q-38 22 -84 22zM360 93q88 0 135 69t47 178q0 78 -24 135l-246 -359q37 -23 88 -23z" />
    <glyph glyph-name="zero.osf.zero" horiz-adv-x="652" 
d="M328 555q123 0 201.5 -78.5t78.5 -205.5t-78.5 -205t-201.5 -78t-202.5 78.5t-79.5 204.5t79.5 205t202.5 79zM328 449q-72 0 -119.5 -49.5t-47.5 -128.5q0 -44 18 -85l234 240q-37 23 -85 23zM328 94q70 0 117.5 49.5t47.5 127.5q0 49 -18 85l-233 -239q38 -23 86 -23z
" />
    <glyph glyph-name="zero.dnom" horiz-adv-x="448" 
d="M224 410q89 0 140 -59t51 -150q0 -92 -51 -151t-140 -59t-140 59t-51 151q0 91 51.5 150t139.5 59zM224 71q49 0 75.5 37t26.5 93t-26.5 92.5t-75.5 36.5t-75.5 -36.5t-26.5 -92.5t26.5 -93t75.5 -37z" />
    <glyph glyph-name="one.dnom" horiz-adv-x="333" 
d="M325 72v-72h-295v72h108v237l-103 -30v75l140 46h46v-328h104z" />
    <glyph glyph-name="two.dnom" horiz-adv-x="366" 
d="M333 72v-72h-293v45l144 153q32 32 44 50.5t12 37.5q0 21 -15 34.5t-39 13.5q-59 0 -62 -58h-86q1 61 39 97.5t106 36.5t106 -34.5t38 -84.5q0 -55 -69 -132l-80 -87h155z" />
    <glyph glyph-name="three.dnom" horiz-adv-x="379" 
d="M287 202q54 -28 54 -88q0 -53 -41.5 -88t-108.5 -35q-65 0 -105.5 32.5t-50.5 89.5h87q14 -47 70 -47q30 0 48 13.5t18 34.5q0 50 -75 50h-32v70h32q27 0 44 14t17 36t-15 35t-41 13q-25 0 -39 -13t-16 -34h-87q5 56 42.5 89t98.5 33q63 0 101 -34.5t38 -88.5
q0 -52 -39 -82z" />
    <glyph glyph-name="four.dnom" horiz-adv-x="414" 
d="M381 77h-54v-77h-85v77h-215v55l118 269h89l-104 -248h112v112h85v-112h54v-76z" />
    <glyph glyph-name="five.dnom" horiz-adv-x="391" 
d="M147 261h50q70 0 108.5 -36.5t38.5 -95.5t-42.5 -98.5t-109.5 -39.5q-66 0 -107.5 32.5t-49.5 87.5h86q16 -44 71 -44q31 0 50.5 17.5t19.5 42.5q0 27 -17 43t-50 16h-129v215h262v-79h-181v-61z" />
    <glyph glyph-name="six.dnom" horiz-adv-x="385" 
d="M280 401l-81 -124q68 -1 111 -41.5t43 -99.5q0 -62 -44.5 -103.5t-115.5 -41.5q-70 0 -116 42t-46 100q0 42 40 104l106 164h103zM193 62q32 0 53.5 19.5t21.5 48.5q0 32 -21 51.5t-54 19.5t-55 -19l-1 -1q-20 -29 -20 -49q0 -30 21.5 -50t54.5 -20z" />
    <glyph glyph-name="seven.dnom" horiz-adv-x="335" 
d="M315 401v-53l-167 -348h-98l154 319h-184v82h295z" />
    <glyph glyph-name="eight.dnom" horiz-adv-x="409" 
d="M306 211q61 -33 61 -98q0 -54 -44 -88t-119 -34q-74 0 -118.5 34t-44.5 88q0 67 62 98q-45 29 -45 83q0 52 40.5 84t105.5 32t106 -32t41 -84q0 -54 -45 -83zM204 341q-26 0 -43 -14.5t-17 -37.5q0 -24 17 -39t43 -15t43.5 15t17.5 39q0 23 -17.5 37.5t-43.5 14.5z
M204 64q30 0 48.5 15.5t18.5 40.5q0 24 -18.5 39t-48.5 15t-48 -15t-18 -39q0 -25 18 -40.5t48 -15.5z" />
    <glyph glyph-name="nine.dnom" horiz-adv-x="385" 
d="M192 411q70 0 116 -42t46 -100q0 -42 -40 -104l-106 -164h-103l81 124q-68 1 -111 41.5t-43 99.5q0 62 44.5 103.5t115.5 41.5zM247 220l1 1q20 29 20 49q0 30 -21.5 50t-54.5 20q-32 0 -53.5 -19.5t-21.5 -48.5q0 -32 21 -51.5t54 -19.5t55 19z" />
    <glyph glyph-name="zero.numr" horiz-adv-x="448" 
d="M224 689q89 0 140 -59t51 -150q0 -92 -51 -151t-140 -59t-140 59t-51 151q0 91 51.5 150t139.5 59zM224 350q49 0 75.5 37t26.5 93t-26.5 92.5t-75.5 36.5t-75.5 -36.5t-26.5 -92.5t26.5 -93t75.5 -37z" />
    <glyph glyph-name="one.numr" horiz-adv-x="333" 
d="M325 351v-72h-295v72h108v237l-103 -30v75l140 46h46v-328h104z" />
    <glyph glyph-name="two.numr" horiz-adv-x="366" 
d="M333 351v-72h-293v45l144 153q32 32 44 50.5t12 37.5q0 21 -15 34.5t-39 13.5q-59 0 -62 -58h-86q1 61 39 97.5t106 36.5t106 -34.5t38 -84.5q0 -55 -69 -132l-80 -87h155z" />
    <glyph glyph-name="three.numr" horiz-adv-x="379" 
d="M287 485q54 -28 54 -88q0 -53 -41.5 -88t-108.5 -35q-65 0 -105.5 32.5t-50.5 89.5h87q14 -47 70 -47q30 0 48 13.5t18 34.5q0 50 -75 50h-32v70h32q27 0 44 14t17 36t-15 35t-41 13q-25 0 -39 -13t-16 -34h-87q5 56 42.5 89t98.5 33q63 0 101 -34.5t38 -88.5
q0 -52 -39 -82z" />
    <glyph glyph-name="four.numr" horiz-adv-x="414" 
d="M381 356h-54v-77h-85v77h-215v55l118 269h89l-104 -248h112v112h85v-112h54v-76z" />
    <glyph glyph-name="five.numr" horiz-adv-x="391" 
d="M147 540h50q70 0 108.5 -36.5t38.5 -95.5t-42.5 -98.5t-109.5 -39.5q-66 0 -107.5 32.5t-49.5 87.5h86q16 -44 71 -44q31 0 50.5 17.5t19.5 42.5q0 27 -17 43t-50 16h-129v215h262v-79h-181v-61z" />
    <glyph glyph-name="six.numr" horiz-adv-x="385" 
d="M280 680l-81 -124q68 -1 111 -41.5t43 -99.5q0 -62 -44.5 -103.5t-115.5 -41.5q-70 0 -116 42t-46 100q0 42 40 104l106 164h103zM193 341q32 0 53.5 19.5t21.5 48.5q0 32 -21 51.5t-54 19.5t-55 -19l-1 -1q-20 -29 -20 -49q0 -30 21.5 -50t54.5 -20z" />
    <glyph glyph-name="seven.numr" horiz-adv-x="335" 
d="M315 680v-53l-167 -348h-98l154 319h-184v82h295z" />
    <glyph glyph-name="eight.numr" horiz-adv-x="409" 
d="M306 494q61 -33 61 -98q0 -54 -44 -88t-119 -34q-74 0 -118.5 34t-44.5 88q0 67 62 98q-45 29 -45 83q0 52 40.5 84t105.5 32t106 -32t41 -84q0 -54 -45 -83zM204 624q-26 0 -43 -14.5t-17 -37.5q0 -24 17 -39t43 -15t43.5 15t17.5 39q0 23 -17.5 37.5t-43.5 14.5z
M204 347q30 0 48.5 15.5t18.5 40.5q0 24 -18.5 39t-48.5 15t-48 -15t-18 -39q0 -25 18 -40.5t48 -15.5z" />
    <glyph glyph-name="nine.numr" horiz-adv-x="385" 
d="M192 694q70 0 116 -42t46 -100q0 -42 -40 -104l-106 -164h-103l81 124q-68 1 -111 41.5t-43 99.5q0 62 44.5 103.5t115.5 41.5zM247 503l1 1q20 29 20 49q0 30 -21.5 50t-54.5 20q-32 0 -53.5 -19.5t-21.5 -48.5q0 -32 21 -51.5t54 -19.5t55 19z" />
    <glyph glyph-name="backslash.case" horiz-adv-x="373" 
d="M16 730h119l222 -777h-119z" />
    <glyph glyph-name="bullet.case" horiz-adv-x="331" 
d="M165 202q-53 0 -92 39t-39 91t39 91t92 39t92.5 -39t39.5 -91t-39.5 -91t-92.5 -39z" />
    <glyph glyph-name="exclamdown.case" horiz-adv-x="279" 
d="M139 689q30 0 51 -20t21 -49t-21 -49t-51 -20q-29 0 -50 20t-21 49t21 49t50 20zM79 0l9 470h103l9 -470h-121z" />
    <glyph glyph-name="periodcentered.case" horiz-adv-x="209" 
d="M104 263q-29 0 -50 20t-21 49t21 49t50 20q30 0 51 -20t21 -49t-21 -49t-51 -20z" />
    <glyph glyph-name="questiondown.case" horiz-adv-x="534" 
d="M300 689q29 0 50 -20t21 -49t-21 -49t-50 -20q-30 0 -51 20t-21 49t21 49t51 20zM342 473l9 -155h-65q-53 0 -88.5 -31.5t-35.5 -82.5q0 -50 31.5 -81.5t82.5 -31.5q45 0 76.5 25t37.5 67h116q-8 -89 -67 -142t-158 -53t-165 60t-66 155q0 82 53 133.5t144 60.5l5 76h90z
" />
    <glyph glyph-name="slash.case" horiz-adv-x="373" 
d="M41 -47l222 777h120l-222 -777h-120z" />
    <glyph glyph-name="braceleft.case" horiz-adv-x="354" 
d="M233 561v-100q0 -52 -15 -77.5t-59 -39.5q44 -14 59 -39.5t15 -77.5v-100q0 -32 23.5 -51.5t62.5 -19.5v-113q-90 0 -145.5 51t-55.5 133v97q0 44 -18 56.5t-68 12.5v102q50 0 68 12.5t18 56.5v97q0 82 55.5 133t145.5 51v-113q-39 0 -62.5 -19.5t-23.5 -51.5z" />
    <glyph glyph-name="braceright.case" horiz-adv-x="367" 
d="M133 461v100q0 32 -23.5 51.5t-62.5 19.5v113q91 0 146 -50.5t55 -133.5v-97q0 -44 18.5 -56.5t67.5 -12.5v-102q-49 0 -67.5 -12.5t-18.5 -56.5v-97q0 -83 -55 -133.5t-146 -50.5v113q39 0 62.5 19.5t23.5 51.5v100q0 51 15 77t60 40q-45 14 -60 40t-15 77z" />
    <glyph glyph-name="bracketleft.case" horiz-adv-x="371" 
d="M192 65h144v-111h-260v776h260v-111h-144v-554z" />
    <glyph glyph-name="bracketright.case" horiz-adv-x="367" 
d="M31 619v111h260v-776h-260v111h144v554h-144z" />
    <glyph glyph-name="parenleft.case" horiz-adv-x="349" 
d="M251 736l74 -75q-82 -84 -115 -149.5t-33 -164.5t32.5 -163.5t115.5 -148.5l-74 -75q-102 90 -148.5 179.5t-46.5 207.5q0 119 46.5 209t148.5 180z" />
    <glyph glyph-name="parenright.case" horiz-adv-x="349" 
d="M24 661l75 75q101 -90 147.5 -180.5t46.5 -208.5t-46.5 -207.5t-147.5 -179.5l-75 75q83 84 115.5 148.5t32.5 163.5t-33 164.5t-115 149.5z" />
    <glyph glyph-name="emdash.case" horiz-adv-x="1026" 
d="M929 274v116h-832v-116h832z" />
    <glyph glyph-name="endash.case" horiz-adv-x="706" 
d="M601 274v116h-497v-116h497z" />
    <glyph glyph-name="hyphen.case" horiz-adv-x="553" 
d="M448 273v116h-344v-116h344z" />
    <glyph glyph-name="guillemotleft.case" horiz-adv-x="451" 
d="M238 486l-96 -153l96 -152h-112l-96 152l96 153h112zM421 486l-97 -153l97 -152h-112l-96 152l96 153h112z" />
    <glyph glyph-name="guillemotright.case" horiz-adv-x="451" 
d="M238 333l-96 -152h-112l96 152l-96 153h112zM421 333l-97 -152h-111l96 152l-96 153h111z" />
    <glyph glyph-name="guilsinglleft.case" horiz-adv-x="268" 
d="M238 486l-96 -153l96 -152h-112l-96 152l96 153h112z" />
    <glyph glyph-name="guilsinglright.case" horiz-adv-x="268" 
d="M238 333l-96 -152h-112l96 152l-96 153h112z" />
    <glyph glyph-name="florin.tf" horiz-adv-x="631" 
d="M495 578q-86 0 -98 -96l-14 -107h167v-98h-181l-24 -181q-12 -94 -62 -148.5t-134 -54.5q-53 0 -109 15l16 101q43 -9 71 -9q43 0 68 25.5t31 70.5l24 181h-130v98h143l14 107q12 94 62 148.5t134 54.5q53 0 109 -15l-16 -101q-43 9 -71 9z" />
    <glyph glyph-name="cent.tf" horiz-adv-x="631" 
d="M314 93q44 0 75 23t39 61h119q-10 -71 -59 -120t-121 -63v-106h-104v106q-88 17 -144 84t-56 158q0 92 56 159t144 84v120h104v-120q72 -14 121 -63.5t59 -119.5h-119q-8 38 -39 60.5t-75 22.5q-60 0 -97.5 -41t-37.5 -102t37.5 -102t97.5 -41z" />
    <glyph glyph-name="dollar.tf" horiz-adv-x="631" 
d="M303 402l85 -17q102 -20 153 -64t51 -123q0 -84 -56.5 -140t-152.5 -69v-109h-104v109q-105 13 -169.5 74.5t-71.5 158.5h118q10 -60 57.5 -95t122.5 -35q63 0 98 24.5t35 67.5q0 67 -99 84l-112 22q-193 36 -193 193q0 87 58 143t156 67v110h104v-113q85 -13 144 -65
t68 -146h-118q-18 113 -149 113q-62 0 -99 -26.5t-37 -72.5q0 -38 27.5 -59t83.5 -32z" />
    <glyph glyph-name="Euro.tf" horiz-adv-x="631" 
d="M358 93q76 0 106 47h142q-30 -73 -94.5 -114t-153.5 -41q-109 0 -184 62t-103 167h-60v82h46q-2 28 -2 44l1 24h-45v82h55q25 114 101.5 181.5t190.5 67.5q94 0 161.5 -46.5t95.5 -126.5h-134q-34 65 -123 65q-64 0 -107 -38t-62 -103h269l-21 -82h-261l-1 -24
q0 -16 2 -44h244l-20 -82h-206q46 -121 163 -121z" />
    <glyph glyph-name="sterling.tf" horiz-adv-x="631" 
d="M223 101h361v-101h-540v101h63v175h-63v101h63v79q0 107 67.5 173t177.5 66q101 0 167 -55.5t77 -149.5h-117q-9 48 -42.5 75.5t-84.5 27.5q-58 0 -93.5 -37.5t-35.5 -99.5v-79h205v-101h-205v-175z" />
    <glyph glyph-name="yen.tf" horiz-adv-x="631" 
d="M408 291h145v-84h-177v-51h177v-84h-177v-72h-121v72h-178v84h178v51h-178v84h146l-200 389h133l159 -320l159 320h133z" />
    <glyph glyph-name="arrowdown.ss05" horiz-adv-x="700" 
d="M609 400l-258 -259l-71 71l-189 190l71 70l188 -189l188 188z" />
    <glyph glyph-name="arrowleft.ss05" horiz-adv-x="700" 
d="M538 142l-188 188l-188 -189l-71 70l189 190l71 71l258 -259z" />
    <glyph glyph-name="arrowright.ss05" horiz-adv-x="570" 
d="M247 337l189 -188l-71 -71l-189 188l-70 70l71 70l190 190l70 -71z" />
    <glyph glyph-name="arrowup.ss05" horiz-adv-x="567" 
d="M462 336l-260 -258l-70 71l188 187l-190 189l71 71l190 -189z" />
    <glyph glyph-name="at.case" horiz-adv-x="997" 
d="M701 503v-227q0 -91 63 -91q85 0 85 131q0 146 -98 241.5t-246 95.5t-251.5 -99.5t-103.5 -243.5t102.5 -243t246.5 -99q125 0 220 75l47 -71q-116 -85 -266 -85q-181 0 -308.5 121t-127.5 302t128 302.5t313 121.5q184 0 306 -117.5t122 -298.5q0 -99 -41.5 -159
t-127.5 -60q-100 0 -139 66q-56 -66 -150 -66q-86 0 -143.5 60t-57.5 147q0 88 57.5 148t143.5 60q70 0 124 -41v30h102zM492 191q69 0 109 62q-2 15 -2 46v63q-41 62 -107 62q-45 0 -79.5 -32.5t-34.5 -84.5t34 -84t80 -32z" />
    <glyph glyph-name="bar.case" horiz-adv-x="319" 
d="M213 730v-777h-107v777h107z" />
    <glyph glyph-name="brokenbar.case" horiz-adv-x="319" 
d="M213 392h-107v338h107v-338zM213 -47h-107v337h107v-337z" />
    <glyph glyph-name="registered.ss07" horiz-adv-x="840" 
d="M420 695q150 0 257 -102t107 -253t-107 -253t-257 -102t-257 102t-107 253t107 253t257 102zM419 61q116 0 200 81t84 198t-84 198t-200 81q-115 0 -199 -81t-84 -198t84 -198t199 -81zM566 397q0 -73 -66 -100l78 -109h-88l-67 97h-54v-97h-70v324h136q59 0 95 -31.5
t36 -83.5zM369 348h65q28 0 44 13.5t16 36.5q0 21 -16 34.5t-44 13.5h-65v-98z" />
    <glyph glyph-name="caron.alt" 
d="M364 680l-36 -199h-88l7 199h117z" />
    <glyph glyph-name="acute.case" 
d="M437 870l-98 -149h-105l75 149h128z" />
    <glyph glyph-name="breve.case" 
d="M371 877h84q0 -74 -43 -114t-112 -40t-112 40t-43 114h84q0 -40 20 -58.5t51 -18.5q30 0 50.5 18.5t20.5 58.5z" />
    <glyph glyph-name="caron.case" 
d="M475 866l-120 -153h-110l-119 153h108l67 -79l65 79h109z" />
    <glyph glyph-name="circumflex.case" 
d="M301 793l-67 -80h-108l119 153h110l120 -153h-109z" />
    <glyph glyph-name="dieresis.case" 
d="M196 878q31 0 52 -20.5t21 -50.5q0 -29 -21 -49.5t-52 -20.5q-30 0 -51.5 20.5t-21.5 49.5q0 30 21.5 50.5t51.5 20.5zM404 878q31 0 52 -20.5t21 -50.5q0 -29 -21 -49.5t-52 -20.5q-30 0 -51.5 20.5t-21.5 49.5q0 30 21.5 50.5t51.5 20.5z" />
    <glyph glyph-name="dotaccent.case" 
d="M300 737q-31 0 -52 20.5t-21 49.5q0 30 21 50.5t52 20.5t52 -20.5t21 -50.5q0 -29 -21 -49.5t-52 -20.5z" />
    <glyph glyph-name="grave.case" 
d="M394 721h-105l-98 149h128z" />
    <glyph glyph-name="hungarumlaut.case" 
d="M351 870l-81 -149h-96l58 149h119zM497 870l-81 -149h-96l58 149h119z" />
    <glyph glyph-name="macron.case" 
d="M440 835v-94h-280v94h280z" />
    <glyph glyph-name="ring.case" 
d="M297 940q50 0 81 -29t31 -76t-31 -76.5t-81 -29.5t-80.5 29.5t-30.5 76.5t30.5 76t80.5 29zM297 788q21 0 34 13t13 34q0 20 -13 32.5t-34 12.5q-20 0 -33 -12.5t-13 -32.5q0 -21 13 -34t33 -13z" />
    <glyph glyph-name="tilde.case" 
d="M386 853h92q0 -43 -17 -73t-42 -42t-54 -11t-53 15l-47 29q-26 13 -38 4t-12 -30h-93q0 43 17 73t43 42t54.5 11t52.5 -15l46 -28q27 -13 39 -4.5t12 29.5z" />
    </font>
</defs>
</svg>
